<svg  viewBox="0 0 480 480" width="480" height="480" xmlns="http://www.w3.org/2000/svg"><path d="m264 240c0-13.253906-10.746094-24-24-24s-24 10.746094-24 24 10.746094 24 24 24 24-10.746094 24-24zm-24 8c-4.417969 0-8-3.582031-8-8s3.582031-8 8-8 8 3.582031 8 8-3.582031 8-8 8zm0 0"/><path d="m418.238281 315.199219-122.398437-70.703125c.113281-1.472656.199218-2.960938.199218-4.519532-.042968-13.539062-4.984374-26.605468-13.917968-36.777343 9.160156-18.386719 13.914062-38.65625 13.878906-59.199219 0-54.398438-34.320312-104-72-104-4.417969 0-8 3.582031-8 8v141.527344c-13.621094 6.488281-24.058594 18.179687-28.960938 32.449218-20.484374 1.238282-40.398437 7.230469-58.167968 17.503907-.296875.167969-.574219.367187-.871094.542969-.007812-41.097657 22.492188-78.902344 58.625-98.488282l-7.640625-14.054687c-41.277344 22.382812-66.984375 65.566406-66.984375 112.519531 0 3.566406.246094 7.078125.535156 10.574219-7.839844 6.199219-14.941406 13.28125-21.160156 21.105469-15.734375-73.367188 24.476562-147.226563 94.640625-173.824219l-5.679687-14.953125c-82.949219 31.550781-127.085938 122.148437-100.800782 206.914062-.847656 1.597656-1.742187 3.199219-2.511718 4.800782-10.359376 22.144531-11.160157 43.726562-2.199219 59.199218 2.207031 3.824219 7.101562 5.136719 10.929687 2.925782l22.398438-12.949219c51.53125 65.699219 143.542968 83.484375 215.847656 41.726562l-8-13.839843c-64.667969 37.300781-146.855469 22.082031-193.878906-35.902344l21.152344-12.210938c34.195312 39.722656 89.175781 54.546875 138.703124 37.394532l-5.242187-15.128907c-42.269531 14.671875-89.21875 2.710938-119.320313-30.398437l50.960938-29.433594c9.285156 6.460938 20.3125 9.949219 31.625 10 3.65625-.042969 7.300781-.441406 10.878906-1.183594 11.320313 17.144532 26.46875 31.421875 44.25 41.710938 19.464844 11.378906 41.5625 17.480468 64.109375 17.703125 3.203125 0 6.402344-.125 9.601563-.398438 24.359375-2.105469 43.449218-12.191406 52.375-27.679687 1.066406-1.847656 1.351562-4.039063.792968-6.09375-.558593-2.058594-1.914062-3.804688-3.769531-4.859375zm-186.238281-258.03125c23.710938 6.769531 48 42.320312 48 86.832031.035156 16.707031-3.511719 33.226562-10.398438 48.449219-1.960937-1.195313-3.988281-2.261719-6.082031-3.203125-.511719-.238282-1.023437-.460938-1.535156-.6875-2.085937-.902344-4.222656-1.679688-6.398437-2.328125h-.082032c-2.222656-.617188-4.484375-1.097657-6.769531-1.429688-.5625-.089843-1.132813-.171875-1.703125-.242187-2.328125-.332032-4.679688-.519532-7.03125-.558594-2.675781 0-5.351562.191406-8 .574219zm-146.28125 281.152343c-1.800781-9.199218-1.0625-18.71875 2.136719-27.527343 3.203125 6.890625 6.871093 13.554687 10.976562 19.949219zm26.953125-15.566406c-6.378906-9.828125-11.597656-20.363281-15.550781-31.394531 5.144531-8.152344 11.328125-15.597656 18.398437-22.152344 3.453125 14.8125 9.527344 28.886719 17.9375 41.5625zm34.625-20c-9.109375-13.460937-15.160156-28.753906-17.722656-44.800781 2.375-1.601563 4.808593-3.132813 7.296875-4.59375 14.445312-8.371094 30.515625-13.550781 47.128906-15.191406v1.832031c.023438 2.796875.261719 5.585938.703125 8.34375.097656.648438.191406 1.28125.3125 1.921875.488281 2.675781 1.167969 5.316406 2.03125 7.894531.105469.304688.25.59375.359375.894532.855469 2.332031 1.863281 4.597656 3.019531 6.792968.285157.550782.558594 1.105469.863281 1.648438 1.324219 2.347656 2.8125 4.597656 4.453126 6.734375.097656.128906.160156.273437.257812.402343zm66.710937-32.355468c-8.878906-7.605469-13.992187-18.707032-14.007812-30.398438 0-2.875.316406-5.746094.945312-8.550781 2.972657-13.523438 12.730469-24.542969 25.789063-29.136719 1.882813-.660156 3.808594-1.175781 5.769531-1.535156.894532-.167969 1.800782-.257813 2.703125-.363282 1.023438-.125 2.058594-.222656 3.105469-.269531s2.214844 0 3.320312 0c1.101563 0 1.96875.160157 2.953126.269531 2.261718.265626 4.5.722657 6.6875 1.363282.671874.191406 1.351562.335937 2.007812.566406 1.085938.375 2.125.863281 3.199219 1.328125 1.070312.464844 2.070312.976563 3.070312 1.542969.800781.425781 1.546875.863281 2.289063 1.34375 1.816406 1.164062 3.53125 2.476562 5.128906 3.921875 8.300781 7.570312 13.03125 18.285156 13.03125 29.519531.019531 2.457031-.203125 4.90625-.664062 7.320312-2.613282 14.050782-12.523438 25.640626-26 30.398438-13.476563 4.761719-28.46875 1.972656-39.328126-7.320312zm153.417969 67.480468c-22.464843 1.46875-44.855469-3.828125-64.28125-15.199218-14.460937-8.363282-26.96875-19.71875-36.6875-33.304688.511719-.277344.941407-.664062 1.445313-.949219 1.859375-1.074219 3.65625-2.25 5.378906-3.53125.726562-.535156 1.453125-1.0625 2.152344-1.597656 2.054687-1.679687 3.988281-3.5 5.789062-5.449219.191406-.207031.417969-.382812.601563-.601562 1.957031-2.222656 3.734375-4.597656 5.320312-7.101563.40625-.640625.742188-1.304687 1.128907-1.953125 1.144531-1.960937 2.171874-3.988281 3.070312-6.070312.191406-.449219.472656-.839844.65625-1.289063l110.28125 63.679688c-9.828125 8.179687-22.082031 12.882812-34.855469 13.375zm0 0"/><path d="m240 0c-132.546875 0-240 107.453125-240 240s107.453125 240 240 240 240-107.453125 240-240c-.148438-132.484375-107.515625-239.851562-240-240zm0 464c-123.710938 0-224-100.289062-224-224s100.289062-224 224-224 224 100.289062 224 224c-.140625 123.652344-100.347656 223.859375-224 224zm0 0"/><path d="m392 240c0 10.292969-1.035156 20.554688-3.089844 30.640625l15.683594 3.199219c14.488281-70.894532-17.964844-143.117188-80.59375-179.359375l-8 13.839843c46.949219 27.25 75.890625 77.394532 76 131.679688zm0 0"/><path d="m352 240h16c-.019531-36.417969-15.53125-71.113281-42.664062-95.40625l-10.671876 11.917969c23.742188 21.261719 37.316407 51.617187 37.335938 83.488281zm0 0"/></svg>