<svg xmlns="http://www.w3.org/2000/svg" height="600" version="1.1" viewBox="0 0 600 600" width="600">
<g id="surface1">
<path d="M 570 0 L 30 0 C 13.433594 0 0 13.433594 0 30 L 0 570 C 0 586.566406 13.433594 600 30 600 L 570 600 C 586.566406 600 600 586.566406 600 570 L 600 30 C 600 13.433594 586.566406 0 570 0 Z M 580 570 C 580 575.523438 575.523438 580 570 580 L 30 580 C 24.476562 580 20 575.523438 20 570 L 20 30 C 20 24.476562 24.476562 20 30 20 L 570 20 C 575.523438 20 580 24.476562 580 30 Z M 580 570 " style=" stroke:none;fill-rule:nonzero;fill:rgb(0%,0%,0%);fill-opacity:1;" />
<path d="M 60 90 C 76.566406 90 90 76.566406 90 60 C 90 43.433594 76.566406 30 60 30 C 43.433594 30 30 43.433594 30 60 C 30 76.566406 43.433594 90 60 90 Z M 60 50 C 65.523438 50 70 54.476562 70 60 C 70 65.523438 65.523438 70 60 70 C 54.476562 70 50 65.523438 50 60 C 50 54.476562 54.476562 50 60 50 Z M 60 50 " style=" stroke:none;fill-rule:nonzero;fill:rgb(0%,0%,0%);fill-opacity:1;" />
<path d="M 540 30 C 523.433594 30 510 43.433594 510 60 C 510 76.566406 523.433594 90 540 90 C 556.566406 90 570 76.566406 570 60 C 570 43.433594 556.566406 30 540 30 Z M 540 70 C 534.476562 70 530 65.523438 530 60 C 530 54.476562 534.476562 50 540 50 C 545.523438 50 550 54.476562 550 60 C 550 65.523438 545.523438 70 540 70 Z M 540 70 " style=" stroke:none;fill-rule:nonzero;fill:rgb(0%,0%,0%);fill-opacity:1;" />
<path d="M 60 510 C 43.433594 510 30 523.433594 30 540 C 30 556.566406 43.433594 570 60 570 C 76.566406 570 90 556.566406 90 540 C 90 523.433594 76.566406 510 60 510 Z M 60 550 C 54.476562 550 50 545.523438 50 540 C 50 534.476562 54.476562 530 60 530 C 65.523438 530 70 534.476562 70 540 C 70 545.523438 65.523438 550 60 550 Z M 60 550 " style=" stroke:none;fill-rule:nonzero;fill:rgb(0%,0%,0%);fill-opacity:1;" />
<path d="M 540 510 C 523.433594 510 510 523.433594 510 540 C 510 556.566406 523.433594 570 540 570 C 556.566406 570 570 556.566406 570 540 C 570 523.433594 556.566406 510 540 510 Z M 540 550 C 534.476562 550 530 545.523438 530 540 C 530 534.476562 534.476562 530 540 530 C 545.523438 530 550 534.476562 550 540 C 550 545.523438 545.523438 550 540 550 Z M 540 550 " style=" stroke:none;fill-rule:nonzero;fill:rgb(0%,0%,0%);fill-opacity:1;" />
<path d="M 300 30 C 150.882812 30 30 150.882812 30 300 C 30 449.117188 150.882812 570 300 570 C 449.117188 570 570 449.117188 570 300 C 569.835938 150.953125 449.046875 30.164062 300 30 Z M 300 550 C 161.929688 550 50 438.070312 50 300 C 50 161.929688 161.929688 50 300 50 C 438.070312 50 550 161.929688 550 300 C 549.84375 438.007812 438.007812 549.84375 300 550 Z M 300 550 " style=" stroke:none;fill-rule:nonzero;fill:rgb(0%,0%,0%);fill-opacity:1;" />
<path d="M 413.570312 105.199219 C 404.257812 106.480469 396.097656 112.089844 391.570312 120.332031 L 337.230469 218.140625 C 335.398438 217.300781 333.539062 216.546875 331.640625 215.828125 L 362.378906 108.242188 C 364.964844 99.179688 363.148438 89.433594 357.46875 81.914062 C 351.792969 74.398438 342.910156 69.984375 333.492188 70 L 266.488281 70 C 257.078125 70 248.210938 74.417969 242.542969 81.933594 C 236.875 89.449219 235.0625 99.1875 237.652344 108.242188 L 268.390625 215.828125 C 266.488281 216.546875 264.628906 217.300781 262.796875 218.140625 L 208.460938 120.332031 C 203.886719 112.101562 195.71875 106.492188 186.398438 105.191406 C 177.070312 103.886719 167.675781 107.03125 161.019531 113.691406 L 113.691406 161 C 107.03125 167.65625 103.886719 177.050781 105.191406 186.371094 C 106.492188 195.699219 112.101562 203.867188 120.332031 208.441406 L 218.140625 262.777344 C 217.300781 264.609375 216.546875 266.46875 215.828125 268.367188 L 108.242188 237.671875 C 99.1875 235.082031 89.449219 236.894531 81.933594 242.5625 C 74.417969 248.234375 70 257.101562 70 266.507812 L 70 333.511719 C 70 350.042969 83.378906 363.460938 99.914062 363.511719 C 102.730469 363.507812 105.53125 363.109375 108.242188 362.328125 L 215.828125 331.59375 C 216.546875 333.492188 217.300781 335.351562 218.140625 337.179688 L 120.332031 391.519531 C 112.101562 396.09375 106.492188 404.261719 105.191406 413.585938 C 103.886719 422.910156 107.03125 432.304688 113.691406 438.960938 L 161 486.308594 C 166.585938 491.945312 174.195312 495.113281 182.128906 495.113281 C 183.554688 495.113281 184.980469 495.003906 186.390625 494.800781 C 195.703125 493.519531 203.863281 487.910156 208.390625 479.667969 L 262.730469 381.859375 C 264.5625 382.699219 266.421875 383.453125 268.320312 384.171875 L 237.671875 491.757812 C 235.082031 500.8125 236.894531 510.550781 242.5625 518.066406 C 248.234375 525.582031 257.101562 530 266.507812 530 L 333.511719 530 C 342.921875 530 351.789062 525.582031 357.457031 518.066406 C 363.125 510.550781 364.9375 500.8125 362.347656 491.757812 L 331.59375 384.171875 C 333.492188 383.453125 335.351562 382.699219 337.179688 381.859375 L 391.519531 479.667969 C 396.050781 487.910156 404.203125 493.519531 413.519531 494.800781 C 414.929688 495.003906 416.351562 495.113281 417.777344 495.113281 C 425.710938 495.113281 433.320312 491.945312 438.910156 486.308594 L 486.308594 439 C 492.96875 432.34375 496.113281 422.949219 494.808594 413.628906 C 493.507812 404.300781 487.898438 396.132812 479.667969 391.558594 L 381.859375 337.222656 C 382.699219 335.390625 383.453125 333.53125 384.171875 331.632812 L 491.757812 362.367188 C 494.46875 363.148438 497.269531 363.550781 500.085938 363.550781 C 516.621094 363.5 530 350.082031 530 333.550781 L 530 266.546875 C 530 257.140625 525.582031 248.273438 518.066406 242.601562 C 510.550781 236.9375 500.8125 235.125 491.757812 237.710938 L 384.171875 268.40625 C 383.453125 266.507812 382.699219 264.648438 381.859375 262.820312 L 479.667969 208.480469 C 487.898438 203.90625 493.507812 195.738281 494.808594 186.414062 C 496.113281 177.089844 492.96875 167.695312 486.308594 161.039062 L 439 113.691406 C 432.359375 106.972656 422.914062 103.820312 413.570312 105.199219 Z M 300 370 C 261.335938 370 230 338.664062 230 300 C 230 261.335938 261.335938 230 300 230 C 338.664062 230 370 261.335938 370 300 C 369.953125 338.636719 338.636719 369.953125 300 370 Z M 287.539062 210 L 256.898438 102.75 C 256.035156 99.730469 256.640625 96.484375 258.53125 93.980469 C 260.414062 91.476562 263.375 90 266.507812 90 L 333.511719 90 C 336.644531 90 339.605469 91.476562 341.488281 93.980469 C 343.378906 96.484375 343.984375 99.730469 343.121094 102.75 L 312.460938 210 Z M 125 183.652344 C 124.550781 180.542969 125.601562 177.402344 127.832031 175.191406 L 175.191406 127.832031 C 177.039062 125.960938 179.5625 124.90625 182.191406 124.902344 C 182.664062 124.898438 183.140625 124.929688 183.609375 125 C 186.714844 125.414062 189.433594 127.265625 190.960938 130 L 245.140625 227.507812 L 227.507812 245.140625 L 130 191 C 127.265625 189.476562 125.414062 186.753906 125 183.652344 Z M 210 312.460938 L 102.75 343.101562 C 99.730469 343.964844 96.484375 343.359375 93.980469 341.46875 C 91.476562 339.585938 90 336.625 90 333.492188 L 90 266.488281 C 90 260.96875 94.476562 256.488281 100 256.488281 C 100.941406 256.492188 101.875 256.632812 102.777344 256.890625 L 210 287.539062 Z M 191 470 C 189.472656 472.738281 186.753906 474.609375 183.648438 475.042969 C 180.539062 475.476562 177.40625 474.429688 175.191406 472.210938 L 127.832031 424.847656 C 125.589844 422.636719 124.527344 419.5 124.953125 416.382812 C 125.382812 413.265625 127.25 410.527344 130 409 L 227.507812 354.820312 L 245.140625 372.453125 Z M 312.460938 390 L 343.101562 497.25 C 343.964844 500.269531 343.359375 503.515625 341.46875 506.019531 C 339.585938 508.523438 336.625 510 333.492188 510 L 266.488281 510 C 263.355469 510 260.394531 508.523438 258.511719 506.019531 C 256.621094 503.515625 256.015625 500.269531 256.878906 497.25 L 287.539062 390 Z M 475 416.347656 C 475.449219 419.457031 474.398438 422.597656 472.167969 424.808594 L 424.808594 472.167969 C 422.609375 474.417969 419.460938 475.46875 416.347656 475 C 413.246094 474.585938 410.523438 472.734375 409 470 L 354.820312 372.492188 L 372.453125 354.859375 L 470 409 C 472.734375 410.523438 474.585938 413.246094 475 416.347656 Z M 390 287.539062 L 497.25 256.898438 C 500.269531 256.035156 503.515625 256.640625 506.019531 258.53125 C 508.523438 260.414062 510 263.375 510 266.507812 L 510 333.511719 C 510 336.644531 508.523438 339.605469 506.019531 341.488281 C 503.515625 343.378906 500.269531 343.984375 497.25 343.121094 L 390 312.460938 Z M 475 183.652344 C 474.585938 186.753906 472.734375 189.476562 470 191 L 372.492188 245.179688 L 354.859375 227.546875 L 409 130 C 410.527344 127.261719 413.246094 125.390625 416.351562 124.957031 C 419.460938 124.523438 422.59375 125.570312 424.808594 127.789062 L 472.167969 175.152344 C 474.410156 177.375 475.460938 180.527344 475 183.652344 Z M 475 183.652344 " style=" stroke:none;fill-rule:nonzero;fill:rgb(0%,0%,0%);fill-opacity:1;" />
</g>
</svg>