<?xml version="1.0" encoding="iso-8859-1"?>
<!-- Generator: Adobe Illustrator 19.0.0, SVG Export Plug-In . SVG Version: 6.00 Build 0)  -->
<svg version="1.1" id="Capa_1" width="480" height="480" xmlns="http://www.w3.org/2000/svg" xmlns:xlink="http://www.w3.org/1999/xlink" x="0px" y="0px"
	 viewBox="0 0 480.038 480.038" style="enable-background:new 0 0 480.038 480.038;" xml:space="preserve">
<g>
	<g>
		<path d="M449.542,358.576c16.964-13.998,19.368-39.098,5.37-56.062c-7.605-9.216-18.945-14.53-30.893-14.477
			c-1.113,0-2.16,0.239-3.25,0.329c-6.327-14.692-20.754-24.243-36.75-24.329c-16.53-0.016-31.341,10.211-37.181,25.675
			c-7.04-2.234-14.598-2.234-21.638,0c-7.777-20.534-30.727-30.875-51.261-23.098c-10.604,4.016-18.989,12.37-23.045,22.959
			c-7.087-2.096-14.635-2.047-21.694,0.139c-7.778-20.535-30.731-30.876-51.265-23.097c-10.652,4.035-19.062,12.445-23.097,23.097
			c-7.04-2.234-14.598-2.234-21.638,0c-5.841-15.464-20.651-25.691-37.181-25.675c-15.996,0.086-30.424,9.636-36.75,24.329
			c-1.089-0.089-2.137-0.329-3.25-0.329c-21.993-0.098-39.902,17.652-40,39.645c-0.053,11.948,5.261,23.289,14.477,30.893
			c-18.978,10.562-30.669,30.65-30.477,52.368v61.094c-0.003,4.416,3.575,7.997,7.991,8c0.003,0,0.006,0,0.009,0h464
			c4.416,0.003,7.997-3.575,8-7.991c0-0.003,0-0.006,0-0.009v-61.094C480.211,389.226,468.521,369.138,449.542,358.576z
			 M424.019,304.038c13.249,0.014,23.986,10.751,24,24c0,13.255-10.745,24-24,24s-24-10.745-24-24S410.764,304.038,424.019,304.038z
			 M384.019,280.038c8.908,0.058,17.057,5.026,21.19,12.918c-12.954,6.875-21.088,20.307-21.179,34.972
			c-2.777,0.014-5.537-0.445-8.16-1.359c-0.435-11.5-5.835-22.247-14.803-29.46C364.076,286.951,373.426,279.997,384.019,280.038z
			 M336.019,304.038c13.249,0.014,23.986,10.751,24,24c0,13.255-10.745,24-24,24s-24-10.745-24-24S322.764,304.038,336.019,304.038z
			 M288.019,280.038c10.593-0.041,19.943,6.913,22.951,17.07c-8.917,7.176-14.305,17.848-14.785,29.284
			c-5.262,1.87-11.007,1.879-16.274,0.024c-0.471-11.495-5.867-22.232-14.811-29.469
			C268.168,286.869,277.484,279.995,288.019,280.038z M219.402,315.706c4.331-7.256,12.167-11.69,20.617-11.668
			c4.301-0.016,8.524,1.155,12.203,3.383c11.351,6.775,15.06,21.469,8.285,32.82c-6.775,11.351-21.469,15.06-32.82,8.285
			C216.336,341.751,212.627,327.057,219.402,315.706z M192.019,280.038c10.593-0.041,19.943,6.913,22.951,17.07
			c-8.917,7.176-14.305,17.848-14.785,29.284c-5.283,1.877-11.05,1.877-16.333,0c-0.48-11.435-5.868-22.108-14.785-29.284
			C172.076,286.951,181.426,279.997,192.019,280.038z M144.019,304.038c13.249,0.014,23.986,10.751,24,24c0,13.255-10.745,24-24,24
			s-24-10.745-24-24S130.764,304.038,144.019,304.038z M96.019,280.038c10.593-0.041,19.943,6.913,22.951,17.07
			c-8.968,7.213-14.368,17.96-14.803,29.46c-2.623,0.914-5.382,1.374-8.16,1.359c-0.091-14.665-8.225-28.096-21.179-34.972
			C78.962,285.065,87.111,280.097,96.019,280.038z M56.019,304.038c13.255,0,24,10.745,24,24s-10.745,24-24,24
			c-13.249-0.014-23.986-10.751-24-24C32.019,314.783,42.764,304.038,56.019,304.038z M88.019,410.944v53.094h-72v-53.094
			c-0.746-22.873,17.131-42.049,40-42.906c15.229,0.279,28.957,9.244,35.335,23.076C89.157,397.495,88.03,404.196,88.019,410.944z
			 M81.497,358.614c4.854-3.977,8.706-9.041,11.243-14.781c1.092,0.089,2.181,0.205,3.279,0.205
			c3.658-0.008,7.297-0.517,10.816-1.512c2.475,6.246,6.485,11.766,11.66,16.05c-7.263,3.958-13.577,9.449-18.506,16.092
			C95.071,368.031,88.759,362.551,81.497,358.614z M184.019,410.944v53.094h-80v-53.094c-0.746-22.873,17.131-42.049,40-42.906
			C166.888,368.895,184.766,388.071,184.019,410.944z M169.542,358.576c5.175-4.284,9.185-9.804,11.661-16.05
			c7.07,2.016,14.563,2.016,21.633,0c2.475,6.246,6.485,11.766,11.66,16.05c-9.413,5.156-17.198,12.839-22.477,22.183
			C186.74,371.415,178.955,363.732,169.542,358.576z M280.019,410.944v53.094h-80v-53.094c-0.746-22.873,17.131-42.049,40-42.906
			C262.888,368.895,280.766,388.071,280.019,410.944z M265.542,358.576c5.175-4.284,9.185-9.804,11.661-16.05
			c7.07,2.016,14.563,2.016,21.633,0c2.475,6.246,6.485,11.766,11.66,16.05c-9.413,5.156-17.198,12.839-22.477,22.183
			C282.74,371.415,274.955,363.732,265.542,358.576z M376.019,410.944v53.094h-80v-53.094c-1.55-22.091,15.101-41.257,37.193-42.807
			c22.091-1.551,41.257,15.101,42.807,37.193C376.15,407.199,376.15,409.075,376.019,410.944z M380.049,374.668
			c-4.929-6.642-11.244-12.133-18.507-16.092c5.175-4.284,9.185-9.805,11.661-16.05c3.519,0.995,7.159,1.504,10.816,1.512
			c1.098,0,2.188-0.116,3.279-0.205c2.537,5.74,6.388,10.803,11.243,14.781C391.279,362.551,384.967,368.031,380.049,374.668z
			 M464.019,410.944v53.094h-72v-53.094c-0.011-6.749-1.138-13.449-3.335-19.831c6.378-13.832,20.106-22.797,35.335-23.076
			C446.888,368.895,464.766,388.071,464.019,410.944z"/>
	</g>
</g>
<g>
	<g>
		<path d="M335.048,18.817c-0.28-0.286-0.563-0.569-0.849-0.849c-24.372-23.957-63.448-23.957-87.82,0l-6.359,6.289l-6.359-6.289
			c-24.372-23.957-63.448-23.957-87.82,0c-23.425,22.956-23.805,60.555-0.849,83.979c0.288,0.294,0.579,0.584,0.873,0.872
			l88.555,86.93c3.111,3.052,8.092,3.052,11.203,0l88.578-86.953C357.623,79.84,358.004,42.242,335.048,18.817z M323.667,90.701
			c-0.229,0.235-0.461,0.467-0.696,0.696l-82.952,81.43l-82.93-81.406c-17.142-16.745-17.464-44.217-0.719-61.359
			c0.237-0.242,0.476-0.482,0.719-0.719h0c18.13-17.812,47.19-17.812,65.32,0l11.984,11.859c3.118,3.078,8.132,3.078,11.25,0
			l11.984-11.859c18.13-17.812,47.19-17.812,65.32,0C340.09,46.088,340.412,73.559,323.667,90.701z"/>
	</g>
</g>
<g>
	<g>
		<path d="M118.194,133.526c-0.738-0.805-1.51-1.578-2.316-2.316c-14.304-13.045-35.604-14.81-51.859-4.297
			c-16.258-10.505-37.552-8.741-51.859,4.297c-15.235,13.956-16.272,37.621-2.316,52.856c0.738,0.805,1.51,1.578,2.316,2.316
			l46.391,43.492c1.48,1.393,3.436,2.168,5.469,2.164c2.032,0.004,3.989-0.771,5.469-2.164l46.391-43.492
			C131.114,172.426,132.151,148.761,118.194,133.526z M106.504,173.147c-0.494,0.548-1.016,1.069-1.563,1.563l-40.922,38.359
			L23.097,174.71c-4.477-4.087-7.043-9.86-7.078-15.922c0.037-6.057,2.603-11.824,7.078-15.906c10.044-9.156,25.409-9.156,35.453,0
			c3.073,2.891,7.865,2.891,10.937,0c10.044-9.156,25.409-9.156,35.453,0C113.73,150.808,114.43,164.358,106.504,173.147z"/>
	</g>
</g>
<g>
	<g>
		<path d="M470.194,133.526c-0.738-0.805-1.51-1.578-2.316-2.316c-14.304-13.046-35.604-14.811-51.859-4.297
			c-16.258-10.505-37.552-8.741-51.859,4.297c-15.235,13.956-16.272,37.621-2.316,52.856c0.738,0.805,1.51,1.578,2.316,2.316
			l46.391,43.492c3.075,2.885,7.863,2.885,10.937,0l46.391-43.492C483.114,172.426,484.151,148.761,470.194,133.526z
			 M458.504,173.147c-0.494,0.548-1.016,1.069-1.563,1.563v0l-40.922,38.359l-40.922-38.359c-8.789-7.926-9.489-21.476-1.563-30.265
			c0.494-0.548,1.015-1.069,1.563-1.563c10.044-9.156,25.409-9.156,35.453,0c3.073,2.891,7.865,2.891,10.937,0
			c10.044-9.156,25.409-9.156,35.453,0C465.73,150.808,466.43,164.358,458.504,173.147z"/>
	</g>
</g>
<g>
</g>
<g>
</g>
<g>
</g>
<g>
</g>
<g>
</g>
<g>
</g>
<g>
</g>
<g>
</g>
<g>
</g>
<g>
</g>
<g>
</g>
<g>
</g>
<g>
</g>
<g>
</g>
<g>
</g>
</svg>
