<?xml version="1.0" encoding="UTF-8"?><!DOCTYPE svg PUBLIC "-//W3C//DTD SVG 1.1//EN" "http://www.w3.org/Graphics/SVG/1.1/DTD/svg11.dtd"><svg xmlns="http://www.w3.org/2000/svg" xmlns:xlink="http://www.w3.org/1999/xlink"><symbol id="icon-air-conditioner" viewBox="0 0 512 512">
<g>
	<path d="M475,100.486H121.478c-4.142,0-7.5,3.357-7.5,7.5s3.358,7.5,7.5,7.5H475c11.53,0,20.91,9.38,20.91,20.91v159.691   c0,11.53-9.38,20.91-20.91,20.91h-17.959v-48.867c0-4.143-3.358-7.5-7.5-7.5H61.368c-4.142,0-7.5,3.357-7.5,7.5v48.867H35.91   c-11.53,0-20.91-9.38-20.91-20.91V136.396c0-11.53,9.38-20.91,20.91-20.91h55.568c4.142,0,7.5-3.357,7.5-7.5s-3.358-7.5-7.5-7.5   H35.91c-19.801,0-35.91,16.109-35.91,35.91v159.691c0,19.801,16.109,35.91,35.91,35.91h78.071c4.142,0,7.5-3.357,7.5-7.5   c0-4.142-3.358-7.5-7.5-7.5H68.868v-13.184h298.061c4.142,0,7.5-3.357,7.5-7.5c0-4.143-3.358-7.5-7.5-7.5H68.868v-13.184h373.173   v13.184h-45.112c-4.142,0-7.5,3.357-7.5,7.5c0,4.143,3.358,7.5,7.5,7.5h45.112v13.184H143.98c-4.142,0-7.5,3.358-7.5,7.5   c0,4.143,3.358,7.5,7.5,7.5H475c19.801,0,35.91-16.109,35.91-35.91V136.396C510.909,116.596,494.8,100.486,475,100.486z"/>
	<path d="M449.541,161.467c4.142,0,7.5-3.357,7.5-7.5c0-4.143-3.358-7.5-7.5-7.5H427.36c-4.142,0-7.5,3.357-7.5,7.5   c0,4.143,3.358,7.5,7.5,7.5H449.541z"/>
	<path d="M393.139,161.467c4.142,0,7.5-3.357,7.5-7.5c0-4.143-3.358-7.5-7.5-7.5H251.183c-4.142,0-7.5,3.357-7.5,7.5   c0,4.143,3.358,7.5,7.5,7.5H393.139z"/>
	<path d="M141.082,352.064c-4.142,0-7.5,3.357-7.5,7.5c0,0.223-0.241,22.457-21.047,37.245c-3.376,2.399-4.168,7.082-1.768,10.458   c1.463,2.059,3.773,3.156,6.12,3.156c1.503,0,3.021-0.451,4.339-1.388c27.046-19.224,27.357-48.246,27.357-49.472   C148.582,355.421,145.224,352.064,141.082,352.064z"/>
	<path d="M194.783,352.064c-4.142,0-7.5,3.357-7.5,7.5v43.358c0,4.143,3.358,7.5,7.5,7.5c4.142,0,7.5-3.357,7.5-7.5v-43.358   C202.283,355.421,198.925,352.064,194.783,352.064z"/>
	<path d="M257.564,352.064c-4.142,0-7.5,3.357-7.5,7.5v43.358c0,4.143,3.358,7.5,7.5,7.5c4.142,0,7.5-3.357,7.5-7.5v-43.358   C265.064,355.421,261.706,352.064,257.564,352.064z"/>
	<path d="M398.375,396.809c-20.526-14.589-21.036-36.281-21.047-37.279c-0.018-4.127-3.369-7.466-7.5-7.466   c-4.142,0-7.5,3.357-7.5,7.5c0,1.226,0.311,30.248,27.357,49.472c1.318,0.937,2.836,1.388,4.339,1.388   c2.346-0.001,4.657-1.099,6.12-3.156C402.543,403.891,401.751,399.208,398.375,396.809z"/>
	<path d="M316.126,352.064c-4.142,0-7.5,3.357-7.5,7.5v43.358c0,4.143,3.358,7.5,7.5,7.5c4.142,0,7.5-3.357,7.5-7.5v-43.358   C323.626,355.421,320.268,352.064,316.126,352.064z"/>
</g>















</symbol><symbol id="icon-collaboration" viewBox="0 0 480 480">
<g>
	<g>
		<path d="M240,0c-26.51,0-48,21.49-48,48s21.49,48,48,48c26.499-0.026,47.974-21.501,48-48C288,21.49,266.51,0,240,0z M240,80
			c-17.673,0-32-14.327-32-32s14.327-32,32-32c17.673,0,32,14.327,32,32S257.673,80,240,80z"/>
	</g>
</g>
<g>
	<g>
		<path d="M272,104h-1.888l-1.688,0.84c-17.901,8.913-38.947,8.913-56.848,0l-1.688-0.84H208c-22.08,0.026-39.974,17.92-40,40v48
			c0,13.255,10.745,24,24,24h96c13.255,0,24-10.745,24-24v-48C311.974,121.92,294.08,104.026,272,104z M296,192c0,4.418-3.582,8-8,8
			h-96c-4.418,0-8-3.582-8-8v-48c0.002-12.592,9.735-23.042,22.296-23.936c21.375,9.92,46.034,9.92,67.408,0
			c12.56,0.894,22.294,11.344,22.296,23.936V192z"/>
	</g>
</g>
<g>
	<g>
		<path d="M408,264c-26.51,0-48,21.49-48,48c0,26.51,21.49,48,48,48c26.51,0,48-21.49,48-48
			C455.974,285.501,434.499,264.026,408,264z M408,344c-17.673,0-32-14.327-32-32c0-17.673,14.327-32,32-32
			c17.673,0,32,14.327,32,32C440,329.673,425.673,344,408,344z"/>
	</g>
</g>
<g>
	<g>
		<path d="M440,368h-1.888l-1.688,0.8c-17.901,8.912-38.947,8.912-56.848,0l-1.688-0.8H376c-22.08,0.026-39.974,17.92-40,40v48
			c0,13.255,10.745,24,24,24h96c13.255,0,24-10.745,24-24v-48C479.974,385.92,462.08,368.026,440,368z M464,456c0,4.418-3.582,8-8,8
			h-96c-4.418,0-8-3.582-8-8v-48c0.002-12.592,9.735-23.042,22.296-23.936c21.375,9.92,46.033,9.92,67.408,0
			C454.265,384.958,463.998,395.408,464,408V456z"/>
	</g>
</g>
<g>
	<g>
		<path d="M72,264c-26.51,0-48,21.49-48,48c0,26.51,21.49,48,48,48s48-21.49,48-48C119.974,285.501,98.499,264.026,72,264z M72,344
			c-17.673,0-32-14.327-32-32c0-17.673,14.327-32,32-32s32,14.327,32,32C104,329.673,89.673,344,72,344z"/>
	</g>
</g>
<g>
	<g>
		<path d="M104,368h-1.888l-1.688,0.8c-17.901,8.912-38.947,8.912-56.848,0l-1.688-0.8H40c-22.08,0.026-39.974,17.92-40,40v48
			c0,13.255,10.745,24,24,24h96c13.255,0,24-10.745,24-24v-48C143.974,385.92,126.08,368.026,104,368z M128,456c0,4.418-3.582,8-8,8
			H24c-4.418,0-8-3.582-8-8v-48c0.002-12.592,9.735-23.042,22.296-23.936c21.375,9.92,46.033,9.92,67.408,0
			C118.265,384.958,127.998,395.408,128,408V456z"/>
	</g>
</g>
<g>
	<g>
		<path d="M319.372,406.276c-0.004-0.009-0.008-0.018-0.012-0.028c-1.732-4.065-6.431-5.956-10.495-4.224c0,0,0,0,0,0
			c-36.125,15.14-76.245,17.902-114.104,7.856l7.488-2.2c4.242-1.242,6.674-5.686,5.432-9.928s-5.686-6.674-9.928-5.432l-32,9.384
			c-0.12,0-0.208,0.136-0.32,0.176c-0.741,0.276-1.437,0.662-2.064,1.144c-0.278,0.15-0.545,0.318-0.8,0.504
			c-0.844,0.753-1.513,1.681-1.96,2.72c-0.434,1.046-0.641,2.172-0.608,3.304c0.195,1.083,0.462,2.152,0.8,3.2
			c0.048,0.112,0,0.24,0.088,0.352l16,30.616c2.046,3.919,6.881,5.438,10.8,3.392s5.438-6.881,3.392-10.8l-6.512-12.448
			c43.014,12.93,89.195,10.417,130.552-7.104C319.189,415.039,321.093,410.345,319.372,406.276z"/>
	</g>
</g>
<g>
	<g>
		<path d="M453.656,210.344c-3.124-3.123-8.188-3.123-11.312,0l-11.32,11.32c-6.624-70.07-51.111-130.876-115.888-158.4
			c-4.065-1.732-8.764,0.159-10.496,4.224c-1.732,4.065,0.159,8.764,4.224,10.496c58.11,24.697,98.504,78.669,105.816,141.384
			l-9.024-9.024c-3.178-3.07-8.242-2.982-11.312,0.196c-2.994,3.1-2.994,8.015,0,11.116l24,24c3.12,3.128,8.186,3.135,11.314,0.014
			c0.005-0.005,0.01-0.01,0.014-0.014l24-24C456.791,218.528,456.784,213.464,453.656,210.344z"/>
	</g>
</g>
<g>
	<g>
		<path d="M175.768,69.272c-0.026-0.467-0.095-0.93-0.208-1.384c0-0.072-0.088-0.12-0.12-0.2c-0.032-0.08,0-0.136,0-0.2
			c-0.218-0.389-0.47-0.759-0.752-1.104c-0.259-0.469-0.565-0.911-0.912-1.32c-0.473-0.419-0.997-0.776-1.56-1.064
			c-0.281-0.239-0.581-0.456-0.896-0.648l-32-14.616c-4.087-1.678-8.761,0.275-10.439,4.362c-1.587,3.865,0.068,8.301,3.799,10.182
			l16.568,7.576C86.875,104.237,47.955,169.256,48,240c0,4.418,3.582,8,8,8s8-3.582,8-8c-0.04-62.293,32.901-119.952,86.584-151.552
			l-5.784,12.088c-1.907,3.977-0.236,8.747,3.736,10.664c1.079,0.527,2.263,0.801,3.464,0.8c3.072-0.004,5.87-1.767,7.2-4.536
			l16-33.384c0-0.08,0-0.168,0.064-0.248c0.208-0.547,0.353-1.116,0.432-1.696c0.137-0.431,0.239-0.872,0.304-1.32
			C175.973,70.295,175.896,69.778,175.768,69.272z"/>
	</g>
</g>
<g>
</g>
<g>
</g>
<g>
</g>
<g>
</g>
<g>
</g>
<g>
</g>
<g>
</g>
<g>
</g>
<g>
</g>
<g>
</g>
<g>
</g>
<g>
</g>
<g>
</g>
<g>
</g>
<g>
</g>
</symbol><symbol id="icon-conditioner" viewBox="0 0 463 463">
<g>
	<path d="M167.5,92C97.196,92,40,149.196,40,219.5S97.196,347,167.5,347S295,289.804,295,219.5S237.804,92,167.5,92z M167.5,332
		C105.467,332,55,281.532,55,219.5S105.467,107,167.5,107S280,157.468,280,219.5S229.533,332,167.5,332z"/>
	<path d="M241.179,256.851l-41.777-36.554l28.592-25.018c7.256-6.35,11.603-15.519,11.923-25.155
		c0.321-9.638-3.405-19.075-10.224-25.894c-0.014-0.014-0.032-0.032-0.05-0.051c-3.414-3.396-8.126-5.244-12.943-5.09
		c-4.829,0.161-9.424,2.339-12.607,5.976l-36.555,41.777l-25.018-28.593c-6.35-7.257-15.519-11.603-25.155-11.924
		c-9.647-0.331-19.076,3.405-25.911,10.241c-3.417,3.417-5.284,8.146-5.123,12.977c0.161,4.829,2.339,9.424,5.975,12.606
		l41.777,36.554l-28.592,25.018c-7.256,6.35-11.603,15.519-11.923,25.155c-0.321,9.638,3.405,19.075,10.224,25.894
		c0.014,0.014,0.032,0.032,0.05,0.051c3.278,3.26,7.754,5.1,12.366,5.1c0.192,0,0.384-0.004,0.577-0.01
		c4.829-0.161,9.424-2.339,12.607-5.976l36.555-41.777l25.018,28.593c6.35,7.257,15.519,11.603,25.155,11.924
		c0.384,0.013,0.767,0.02,1.15,0.02c9.234-0.001,18.197-3.697,24.76-10.261c3.417-3.417,5.284-8.147,5.124-12.977
		C246.994,264.627,244.815,260.032,241.179,256.851z M215.383,154.942c0.628-0.718,1.408-0.848,1.817-0.861
		c0.415-0.015,1.196,0.063,1.871,0.738c0.012,0.012,0.026,0.026,0.042,0.041c3.935,3.948,5.999,9.19,5.813,14.763
		c-0.186,5.585-2.604,10.687-6.81,14.366l-29.299,25.637c-2.322-4.992-6.343-9.038-11.319-11.387L215.383,154.942z M167.5,228
		c-4.687,0-8.5-3.813-8.5-8.5s3.813-8.5,8.5-8.5s8.5,3.813,8.5,8.5S172.187,228,167.5,228z M101.324,169.043
		c-0.014-0.409,0.064-1.196,0.755-1.887c3.951-3.952,9.199-6.018,14.788-5.839c5.584,0.186,10.687,2.604,14.366,6.809l26.326,30.087
		c-4.938,2.316-8.945,6.297-11.288,11.22l-44.084-38.573C101.468,170.232,101.338,169.452,101.324,169.043z M118.104,284.058
		c-0.628,0.718-1.408,0.848-1.817,0.861c-0.416,0.025-1.196-0.064-1.871-0.738c-0.012-0.012-0.026-0.026-0.042-0.041
		c-3.935-3.948-5.999-9.19-5.813-14.763c0.186-5.585,2.604-10.687,6.81-14.366l30.392-26.593c2.086,5.066,5.892,9.249,10.688,11.815
		L118.104,284.058z M231.408,271.844c-3.951,3.952-9.192,6.036-14.788,5.839c-5.584-0.186-10.687-2.604-14.366-6.809l-25.907-29.609
		c5.12-2.089,9.343-5.932,11.919-10.781l43.036,37.655c0.717,0.628,0.848,1.408,0.861,1.816
		C232.177,270.365,232.099,271.153,231.408,271.844z"/>
	<path d="M439.5,52h-416C10.542,52,0,62.542,0,75.5v288C0,376.458,10.542,387,23.5,387H24v8.5c0,8.547,6.953,15.5,15.5,15.5h18.234
		c6.682,0,12.591-4.259,14.705-10.598L76.906,387h309.188l4.467,13.402c2.113,6.339,8.022,10.598,14.705,10.598H423.5
		c8.547,0,15.5-6.953,15.5-15.5V387h0.5c12.958,0,23.5-10.542,23.5-23.5v-288C463,62.542,452.458,52,439.5,52z M58.208,395.658
		C58.14,395.862,57.95,396,57.734,396H39.5c-0.276,0-0.5-0.225-0.5-0.5V387h22.094L58.208,395.658z M424,395.5
		c0,0.275-0.224,0.5-0.5,0.5h-18.234c-0.216,0-0.406-0.138-0.474-0.342L401.906,387H424V395.5z M448,363.5
		c0,4.687-3.813,8.5-8.5,8.5h-416c-4.687,0-8.5-3.813-8.5-8.5v-288c0-4.687,3.813-8.5,8.5-8.5h416c4.687,0,8.5,3.813,8.5,8.5V363.5z
		"/>
</g>
<g>
</g>
<g>
</g>
<g>
</g>
<g>
</g>
<g>
</g>
<g>
</g>
<g>
</g>
<g>
</g>
<g>
</g>
<g>
</g>
<g>
</g>
<g>
</g>
<g>
</g>
<g>
</g>
<g>
</g>
</symbol><symbol id="icon-engineer" viewBox="0 0 504 504">
<g transform="translate(1 1)">
	<g>
		<path d="M477.426,416.993c-50.095-26.565-88.52-41.461-122.727-47.172l3.54-4.867c1.679-1.679,2.518-4.197,1.679-6.715
			l-7.866-31.463c20.804-29.41,33.046-66.178,33.046-101.153v-33.574h8.393h16.787c5.036,0,8.393-3.357,8.393-8.393
			s-3.357-8.393-8.393-8.393h-8.393v-8.393c0-66.308-43.646-122.544-109.115-141.01V24.18c0-13.43-10.911-25.18-25.18-25.18h-33.574
			c-13.43,0-25.18,10.911-25.18,25.18v1.679c-65.469,18.466-109.115,74.702-109.115,141.01v8.393h-8.393
			c-5.036,0-8.393,3.357-8.393,8.393s3.357,8.393,8.393,8.393h16.787h8.393v33.574c0,34.975,12.242,71.743,33.046,101.154
			l-7.866,31.463c0,1.679,0,5.036,1.679,6.715l3.54,4.867c-34.206,5.712-72.632,20.607-122.727,47.172
			C8.233,424.548-1,440.495-1,458.121v36.092c0,5.036,3.357,8.393,8.393,8.393h201.443h3.357h77.22h3.357h201.443
			c5.036,0,8.393-3.357,8.393-8.393v-36.092C502.607,441.334,492.534,425.387,477.426,416.993z M245.77,409.224l5.081-11.432
			l12.545,27.6l8.205,18.46h-40.941L245.77,409.224z M224.28,460.639h52.983l4.796,25.18h-62.815L224.28,460.639z M338.934,343.131
			l3.357,15.108l-8.574,11.773c-0.547,0.447-1.053,0.989-1.498,1.656l-34.912,48.34l-11.078,15.211l-22.628-50.913
			c27.048-3.299,51.193-16.877,70.694-36.39c0.216-0.214,0.433-0.426,0.648-0.642c0.052-0.053,0.104-0.106,0.156-0.159
			C336.392,345.818,337.671,344.492,338.934,343.131z M327.999,60.389c0.932,0.62,1.856,1.25,2.77,1.892
			c10.699,7.973,20.575,17.313,28.31,27.368l-38.61,7.554L327.999,60.389z M181.138,97.203l-38.61-7.554
			c7.735-10.056,17.612-19.396,28.311-27.369c0.913-0.641,1.837-1.271,2.769-1.891L181.138,97.203z M116.508,166.869
			c0-22.335,5.623-43.406,15.8-61.82l58.063,11.46c0.839,0,0.839,0,1.679,0c2.518,0,4.197-0.839,6.715-1.679
			c2.518-1.679,3.357-5.036,2.518-7.554l-11.523-56.08c6.069-2.92,12.438-5.428,19.077-7.49v22.442c0,5.036,3.357,8.393,8.393,8.393
			s8.393-3.357,8.393-8.393V32.574V24.18c0-4.197,3.357-8.393,8.393-8.393h33.574c4.197,0,8.393,3.357,8.393,8.393v8.393v33.574
			c0,5.036,3.357,8.393,8.393,8.393c5.036,0,8.393-3.357,8.393-8.393V43.706c6.86,2.13,13.435,4.734,19.685,7.779l-11.291,54.952
			c0,2.518,0.839,5.875,2.518,7.554s3.357,2.518,5.875,2.518c0.839,0,0.839,0,1.679,0l57.687-12.145
			c10.416,18.576,16.175,39.894,16.175,62.505v8.393h-8.393H124.902h-8.393V166.869z M133.295,192.049h235.016v33.574
			c0,36.599-12.555,69.122-31.405,93.843l-0.49,0.163c-0.839,0.839-1.679,1.679-2.518,2.518c-4.223,5.631-8.68,10.765-13.337,15.394
			c-19.763,18.412-43.336,29.564-66.05,30.669c-1.143-0.491-2.425-0.738-3.708-0.738c-1.29,0-2.453,0.253-3.496,0.749
			c-13.904-0.638-28.134-5.045-41.623-12.584c-13.665-7.851-26.52-19.169-37.977-33.49c-0.839-0.839-1.679-1.679-2.518-2.518
			l-0.49-0.163c-18.85-24.722-31.405-57.245-31.405-93.843V192.049z M238.005,384.308l-22.628,50.913l-11.078-15.211l-34.912-48.34
			c-0.267-0.267-0.563-0.532-0.869-0.793l-9.203-12.637l3.357-15.108c1.138,1.225,2.292,2.419,3.457,3.594
			C185.833,366.877,210.408,380.942,238.005,384.308z M15.787,458.121c0-10.911,5.875-20.984,15.948-26.02
			c53.501-28.423,92.015-42.688,126.323-46.949l50.088,68.87l-6.359,31.796H15.787V458.121z M485.82,485.82H299.821l-6.359-31.796
			l50.63-69.616c34.188,5.159,73.391,19.413,125.78,46.855c10.072,5.875,15.948,15.948,15.948,26.859V485.82z"/>
	</g>
</g>
<g>
</g>
<g>
</g>
<g>
</g>
<g>
</g>
<g>
</g>
<g>
</g>
<g>
</g>
<g>
</g>
<g>
</g>
<g>
</g>
<g>
</g>
<g>
</g>
<g>
</g>
<g>
</g>
<g>
</g>
</symbol><symbol id="icon-fan" viewBox="0 0 480 480"><path d="m264 240c0-13.253906-10.746094-24-24-24s-24 10.746094-24 24 10.746094 24 24 24 24-10.746094 24-24zm-24 8c-4.417969 0-8-3.582031-8-8s3.582031-8 8-8 8 3.582031 8 8-3.582031 8-8 8zm0 0"/><path d="m418.238281 315.199219-122.398437-70.703125c.113281-1.472656.199218-2.960938.199218-4.519532-.042968-13.539062-4.984374-26.605468-13.917968-36.777343 9.160156-18.386719 13.914062-38.65625 13.878906-59.199219 0-54.398438-34.320312-104-72-104-4.417969 0-8 3.582031-8 8v141.527344c-13.621094 6.488281-24.058594 18.179687-28.960938 32.449218-20.484374 1.238282-40.398437 7.230469-58.167968 17.503907-.296875.167969-.574219.367187-.871094.542969-.007812-41.097657 22.492188-78.902344 58.625-98.488282l-7.640625-14.054687c-41.277344 22.382812-66.984375 65.566406-66.984375 112.519531 0 3.566406.246094 7.078125.535156 10.574219-7.839844 6.199219-14.941406 13.28125-21.160156 21.105469-15.734375-73.367188 24.476562-147.226563 94.640625-173.824219l-5.679687-14.953125c-82.949219 31.550781-127.085938 122.148437-100.800782 206.914062-.847656 1.597656-1.742187 3.199219-2.511718 4.800782-10.359376 22.144531-11.160157 43.726562-2.199219 59.199218 2.207031 3.824219 7.101562 5.136719 10.929687 2.925782l22.398438-12.949219c51.53125 65.699219 143.542968 83.484375 215.847656 41.726562l-8-13.839843c-64.667969 37.300781-146.855469 22.082031-193.878906-35.902344l21.152344-12.210938c34.195312 39.722656 89.175781 54.546875 138.703124 37.394532l-5.242187-15.128907c-42.269531 14.671875-89.21875 2.710938-119.320313-30.398437l50.960938-29.433594c9.285156 6.460938 20.3125 9.949219 31.625 10 3.65625-.042969 7.300781-.441406 10.878906-1.183594 11.320313 17.144532 26.46875 31.421875 44.25 41.710938 19.464844 11.378906 41.5625 17.480468 64.109375 17.703125 3.203125 0 6.402344-.125 9.601563-.398438 24.359375-2.105469 43.449218-12.191406 52.375-27.679687 1.066406-1.847656 1.351562-4.039063.792968-6.09375-.558593-2.058594-1.914062-3.804688-3.769531-4.859375zm-186.238281-258.03125c23.710938 6.769531 48 42.320312 48 86.832031.035156 16.707031-3.511719 33.226562-10.398438 48.449219-1.960937-1.195313-3.988281-2.261719-6.082031-3.203125-.511719-.238282-1.023437-.460938-1.535156-.6875-2.085937-.902344-4.222656-1.679688-6.398437-2.328125h-.082032c-2.222656-.617188-4.484375-1.097657-6.769531-1.429688-.5625-.089843-1.132813-.171875-1.703125-.242187-2.328125-.332032-4.679688-.519532-7.03125-.558594-2.675781 0-5.351562.191406-8 .574219zm-146.28125 281.152343c-1.800781-9.199218-1.0625-18.71875 2.136719-27.527343 3.203125 6.890625 6.871093 13.554687 10.976562 19.949219zm26.953125-15.566406c-6.378906-9.828125-11.597656-20.363281-15.550781-31.394531 5.144531-8.152344 11.328125-15.597656 18.398437-22.152344 3.453125 14.8125 9.527344 28.886719 17.9375 41.5625zm34.625-20c-9.109375-13.460937-15.160156-28.753906-17.722656-44.800781 2.375-1.601563 4.808593-3.132813 7.296875-4.59375 14.445312-8.371094 30.515625-13.550781 47.128906-15.191406v1.832031c.023438 2.796875.261719 5.585938.703125 8.34375.097656.648438.191406 1.28125.3125 1.921875.488281 2.675781 1.167969 5.316406 2.03125 7.894531.105469.304688.25.59375.359375.894532.855469 2.332031 1.863281 4.597656 3.019531 6.792968.285157.550782.558594 1.105469.863281 1.648438 1.324219 2.347656 2.8125 4.597656 4.453126 6.734375.097656.128906.160156.273437.257812.402343zm66.710937-32.355468c-8.878906-7.605469-13.992187-18.707032-14.007812-30.398438 0-2.875.316406-5.746094.945312-8.550781 2.972657-13.523438 12.730469-24.542969 25.789063-29.136719 1.882813-.660156 3.808594-1.175781 5.769531-1.535156.894532-.167969 1.800782-.257813 2.703125-.363282 1.023438-.125 2.058594-.222656 3.105469-.269531s2.214844 0 3.320312 0c1.101563 0 1.96875.160157 2.953126.269531 2.261718.265626 4.5.722657 6.6875 1.363282.671874.191406 1.351562.335937 2.007812.566406 1.085938.375 2.125.863281 3.199219 1.328125 1.070312.464844 2.070312.976563 3.070312 1.542969.800781.425781 1.546875.863281 2.289063 1.34375 1.816406 1.164062 3.53125 2.476562 5.128906 3.921875 8.300781 7.570312 13.03125 18.285156 13.03125 29.519531.019531 2.457031-.203125 4.90625-.664062 7.320312-2.613282 14.050782-12.523438 25.640626-26 30.398438-13.476563 4.761719-28.46875 1.972656-39.328126-7.320312zm153.417969 67.480468c-22.464843 1.46875-44.855469-3.828125-64.28125-15.199218-14.460937-8.363282-26.96875-19.71875-36.6875-33.304688.511719-.277344.941407-.664062 1.445313-.949219 1.859375-1.074219 3.65625-2.25 5.378906-3.53125.726562-.535156 1.453125-1.0625 2.152344-1.597656 2.054687-1.679687 3.988281-3.5 5.789062-5.449219.191406-.207031.417969-.382812.601563-.601562 1.957031-2.222656 3.734375-4.597656 5.320312-7.101563.40625-.640625.742188-1.304687 1.128907-1.953125 1.144531-1.960937 2.171874-3.988281 3.070312-6.070312.191406-.449219.472656-.839844.65625-1.289063l110.28125 63.679688c-9.828125 8.179687-22.082031 12.882812-34.855469 13.375zm0 0"/><path d="m240 0c-132.546875 0-240 107.453125-240 240s107.453125 240 240 240 240-107.453125 240-240c-.148438-132.484375-107.515625-239.851562-240-240zm0 464c-123.710938 0-224-100.289062-224-224s100.289062-224 224-224 224 100.289062 224 224c-.140625 123.652344-100.347656 223.859375-224 224zm0 0"/><path d="m392 240c0 10.292969-1.035156 20.554688-3.089844 30.640625l15.683594 3.199219c14.488281-70.894532-17.964844-143.117188-80.59375-179.359375l-8 13.839843c46.949219 27.25 75.890625 77.394532 76 131.679688zm0 0"/><path d="m352 240h16c-.019531-36.417969-15.53125-71.113281-42.664062-95.40625l-10.671876 11.917969c23.742188 21.261719 37.316407 51.617187 37.335938 83.488281zm0 0"/></symbol><symbol id="icon-fan2" viewBox="0 0 600 600">
<g id="surface1">
<path d="M 570 0 L 30 0 C 13.433594 0 0 13.433594 0 30 L 0 570 C 0 586.566406 13.433594 600 30 600 L 570 600 C 586.566406 600 600 586.566406 600 570 L 600 30 C 600 13.433594 586.566406 0 570 0 Z M 580 570 C 580 575.523438 575.523438 580 570 580 L 30 580 C 24.476562 580 20 575.523438 20 570 L 20 30 C 20 24.476562 24.476562 20 30 20 L 570 20 C 575.523438 20 580 24.476562 580 30 Z M 580 570 " style=" stroke:none;fill-rule:nonzero;fill:rgb(0%,0%,0%);fill-opacity:1;"/>
<path d="M 60 90 C 76.566406 90 90 76.566406 90 60 C 90 43.433594 76.566406 30 60 30 C 43.433594 30 30 43.433594 30 60 C 30 76.566406 43.433594 90 60 90 Z M 60 50 C 65.523438 50 70 54.476562 70 60 C 70 65.523438 65.523438 70 60 70 C 54.476562 70 50 65.523438 50 60 C 50 54.476562 54.476562 50 60 50 Z M 60 50 " style=" stroke:none;fill-rule:nonzero;fill:rgb(0%,0%,0%);fill-opacity:1;"/>
<path d="M 540 30 C 523.433594 30 510 43.433594 510 60 C 510 76.566406 523.433594 90 540 90 C 556.566406 90 570 76.566406 570 60 C 570 43.433594 556.566406 30 540 30 Z M 540 70 C 534.476562 70 530 65.523438 530 60 C 530 54.476562 534.476562 50 540 50 C 545.523438 50 550 54.476562 550 60 C 550 65.523438 545.523438 70 540 70 Z M 540 70 " style=" stroke:none;fill-rule:nonzero;fill:rgb(0%,0%,0%);fill-opacity:1;"/>
<path d="M 60 510 C 43.433594 510 30 523.433594 30 540 C 30 556.566406 43.433594 570 60 570 C 76.566406 570 90 556.566406 90 540 C 90 523.433594 76.566406 510 60 510 Z M 60 550 C 54.476562 550 50 545.523438 50 540 C 50 534.476562 54.476562 530 60 530 C 65.523438 530 70 534.476562 70 540 C 70 545.523438 65.523438 550 60 550 Z M 60 550 " style=" stroke:none;fill-rule:nonzero;fill:rgb(0%,0%,0%);fill-opacity:1;"/>
<path d="M 540 510 C 523.433594 510 510 523.433594 510 540 C 510 556.566406 523.433594 570 540 570 C 556.566406 570 570 556.566406 570 540 C 570 523.433594 556.566406 510 540 510 Z M 540 550 C 534.476562 550 530 545.523438 530 540 C 530 534.476562 534.476562 530 540 530 C 545.523438 530 550 534.476562 550 540 C 550 545.523438 545.523438 550 540 550 Z M 540 550 " style=" stroke:none;fill-rule:nonzero;fill:rgb(0%,0%,0%);fill-opacity:1;"/>
<path d="M 300 30 C 150.882812 30 30 150.882812 30 300 C 30 449.117188 150.882812 570 300 570 C 449.117188 570 570 449.117188 570 300 C 569.835938 150.953125 449.046875 30.164062 300 30 Z M 300 550 C 161.929688 550 50 438.070312 50 300 C 50 161.929688 161.929688 50 300 50 C 438.070312 50 550 161.929688 550 300 C 549.84375 438.007812 438.007812 549.84375 300 550 Z M 300 550 " style=" stroke:none;fill-rule:nonzero;fill:rgb(0%,0%,0%);fill-opacity:1;"/>
<path d="M 413.570312 105.199219 C 404.257812 106.480469 396.097656 112.089844 391.570312 120.332031 L 337.230469 218.140625 C 335.398438 217.300781 333.539062 216.546875 331.640625 215.828125 L 362.378906 108.242188 C 364.964844 99.179688 363.148438 89.433594 357.46875 81.914062 C 351.792969 74.398438 342.910156 69.984375 333.492188 70 L 266.488281 70 C 257.078125 70 248.210938 74.417969 242.542969 81.933594 C 236.875 89.449219 235.0625 99.1875 237.652344 108.242188 L 268.390625 215.828125 C 266.488281 216.546875 264.628906 217.300781 262.796875 218.140625 L 208.460938 120.332031 C 203.886719 112.101562 195.71875 106.492188 186.398438 105.191406 C 177.070312 103.886719 167.675781 107.03125 161.019531 113.691406 L 113.691406 161 C 107.03125 167.65625 103.886719 177.050781 105.191406 186.371094 C 106.492188 195.699219 112.101562 203.867188 120.332031 208.441406 L 218.140625 262.777344 C 217.300781 264.609375 216.546875 266.46875 215.828125 268.367188 L 108.242188 237.671875 C 99.1875 235.082031 89.449219 236.894531 81.933594 242.5625 C 74.417969 248.234375 70 257.101562 70 266.507812 L 70 333.511719 C 70 350.042969 83.378906 363.460938 99.914062 363.511719 C 102.730469 363.507812 105.53125 363.109375 108.242188 362.328125 L 215.828125 331.59375 C 216.546875 333.492188 217.300781 335.351562 218.140625 337.179688 L 120.332031 391.519531 C 112.101562 396.09375 106.492188 404.261719 105.191406 413.585938 C 103.886719 422.910156 107.03125 432.304688 113.691406 438.960938 L 161 486.308594 C 166.585938 491.945312 174.195312 495.113281 182.128906 495.113281 C 183.554688 495.113281 184.980469 495.003906 186.390625 494.800781 C 195.703125 493.519531 203.863281 487.910156 208.390625 479.667969 L 262.730469 381.859375 C 264.5625 382.699219 266.421875 383.453125 268.320312 384.171875 L 237.671875 491.757812 C 235.082031 500.8125 236.894531 510.550781 242.5625 518.066406 C 248.234375 525.582031 257.101562 530 266.507812 530 L 333.511719 530 C 342.921875 530 351.789062 525.582031 357.457031 518.066406 C 363.125 510.550781 364.9375 500.8125 362.347656 491.757812 L 331.59375 384.171875 C 333.492188 383.453125 335.351562 382.699219 337.179688 381.859375 L 391.519531 479.667969 C 396.050781 487.910156 404.203125 493.519531 413.519531 494.800781 C 414.929688 495.003906 416.351562 495.113281 417.777344 495.113281 C 425.710938 495.113281 433.320312 491.945312 438.910156 486.308594 L 486.308594 439 C 492.96875 432.34375 496.113281 422.949219 494.808594 413.628906 C 493.507812 404.300781 487.898438 396.132812 479.667969 391.558594 L 381.859375 337.222656 C 382.699219 335.390625 383.453125 333.53125 384.171875 331.632812 L 491.757812 362.367188 C 494.46875 363.148438 497.269531 363.550781 500.085938 363.550781 C 516.621094 363.5 530 350.082031 530 333.550781 L 530 266.546875 C 530 257.140625 525.582031 248.273438 518.066406 242.601562 C 510.550781 236.9375 500.8125 235.125 491.757812 237.710938 L 384.171875 268.40625 C 383.453125 266.507812 382.699219 264.648438 381.859375 262.820312 L 479.667969 208.480469 C 487.898438 203.90625 493.507812 195.738281 494.808594 186.414062 C 496.113281 177.089844 492.96875 167.695312 486.308594 161.039062 L 439 113.691406 C 432.359375 106.972656 422.914062 103.820312 413.570312 105.199219 Z M 300 370 C 261.335938 370 230 338.664062 230 300 C 230 261.335938 261.335938 230 300 230 C 338.664062 230 370 261.335938 370 300 C 369.953125 338.636719 338.636719 369.953125 300 370 Z M 287.539062 210 L 256.898438 102.75 C 256.035156 99.730469 256.640625 96.484375 258.53125 93.980469 C 260.414062 91.476562 263.375 90 266.507812 90 L 333.511719 90 C 336.644531 90 339.605469 91.476562 341.488281 93.980469 C 343.378906 96.484375 343.984375 99.730469 343.121094 102.75 L 312.460938 210 Z M 125 183.652344 C 124.550781 180.542969 125.601562 177.402344 127.832031 175.191406 L 175.191406 127.832031 C 177.039062 125.960938 179.5625 124.90625 182.191406 124.902344 C 182.664062 124.898438 183.140625 124.929688 183.609375 125 C 186.714844 125.414062 189.433594 127.265625 190.960938 130 L 245.140625 227.507812 L 227.507812 245.140625 L 130 191 C 127.265625 189.476562 125.414062 186.753906 125 183.652344 Z M 210 312.460938 L 102.75 343.101562 C 99.730469 343.964844 96.484375 343.359375 93.980469 341.46875 C 91.476562 339.585938 90 336.625 90 333.492188 L 90 266.488281 C 90 260.96875 94.476562 256.488281 100 256.488281 C 100.941406 256.492188 101.875 256.632812 102.777344 256.890625 L 210 287.539062 Z M 191 470 C 189.472656 472.738281 186.753906 474.609375 183.648438 475.042969 C 180.539062 475.476562 177.40625 474.429688 175.191406 472.210938 L 127.832031 424.847656 C 125.589844 422.636719 124.527344 419.5 124.953125 416.382812 C 125.382812 413.265625 127.25 410.527344 130 409 L 227.507812 354.820312 L 245.140625 372.453125 Z M 312.460938 390 L 343.101562 497.25 C 343.964844 500.269531 343.359375 503.515625 341.46875 506.019531 C 339.585938 508.523438 336.625 510 333.492188 510 L 266.488281 510 C 263.355469 510 260.394531 508.523438 258.511719 506.019531 C 256.621094 503.515625 256.015625 500.269531 256.878906 497.25 L 287.539062 390 Z M 475 416.347656 C 475.449219 419.457031 474.398438 422.597656 472.167969 424.808594 L 424.808594 472.167969 C 422.609375 474.417969 419.460938 475.46875 416.347656 475 C 413.246094 474.585938 410.523438 472.734375 409 470 L 354.820312 372.492188 L 372.453125 354.859375 L 470 409 C 472.734375 410.523438 474.585938 413.246094 475 416.347656 Z M 390 287.539062 L 497.25 256.898438 C 500.269531 256.035156 503.515625 256.640625 506.019531 258.53125 C 508.523438 260.414062 510 263.375 510 266.507812 L 510 333.511719 C 510 336.644531 508.523438 339.605469 506.019531 341.488281 C 503.515625 343.378906 500.269531 343.984375 497.25 343.121094 L 390 312.460938 Z M 475 183.652344 C 474.585938 186.753906 472.734375 189.476562 470 191 L 372.492188 245.179688 L 354.859375 227.546875 L 409 130 C 410.527344 127.261719 413.246094 125.390625 416.351562 124.957031 C 419.460938 124.523438 422.59375 125.570312 424.808594 127.789062 L 472.167969 175.152344 C 474.410156 177.375 475.460938 180.527344 475 183.652344 Z M 475 183.652344 " style=" stroke:none;fill-rule:nonzero;fill:rgb(0%,0%,0%);fill-opacity:1;"/>
</g>
</symbol><symbol id="icon-love" viewBox="0 0 480 480">
<g>
	<g>
		<path d="M449.542,358.576c16.964-13.998,19.368-39.098,5.37-56.062c-7.605-9.216-18.945-14.53-30.893-14.477
			c-1.113,0-2.16,0.239-3.25,0.329c-6.327-14.692-20.754-24.243-36.75-24.329c-16.53-0.016-31.341,10.211-37.181,25.675
			c-7.04-2.234-14.598-2.234-21.638,0c-7.777-20.534-30.727-30.875-51.261-23.098c-10.604,4.016-18.989,12.37-23.045,22.959
			c-7.087-2.096-14.635-2.047-21.694,0.139c-7.778-20.535-30.731-30.876-51.265-23.097c-10.652,4.035-19.062,12.445-23.097,23.097
			c-7.04-2.234-14.598-2.234-21.638,0c-5.841-15.464-20.651-25.691-37.181-25.675c-15.996,0.086-30.424,9.636-36.75,24.329
			c-1.089-0.089-2.137-0.329-3.25-0.329c-21.993-0.098-39.902,17.652-40,39.645c-0.053,11.948,5.261,23.289,14.477,30.893
			c-18.978,10.562-30.669,30.65-30.477,52.368v61.094c-0.003,4.416,3.575,7.997,7.991,8c0.003,0,0.006,0,0.009,0h464
			c4.416,0.003,7.997-3.575,8-7.991c0-0.003,0-0.006,0-0.009v-61.094C480.211,389.226,468.521,369.138,449.542,358.576z
			 M424.019,304.038c13.249,0.014,23.986,10.751,24,24c0,13.255-10.745,24-24,24s-24-10.745-24-24S410.764,304.038,424.019,304.038z
			 M384.019,280.038c8.908,0.058,17.057,5.026,21.19,12.918c-12.954,6.875-21.088,20.307-21.179,34.972
			c-2.777,0.014-5.537-0.445-8.16-1.359c-0.435-11.5-5.835-22.247-14.803-29.46C364.076,286.951,373.426,279.997,384.019,280.038z
			 M336.019,304.038c13.249,0.014,23.986,10.751,24,24c0,13.255-10.745,24-24,24s-24-10.745-24-24S322.764,304.038,336.019,304.038z
			 M288.019,280.038c10.593-0.041,19.943,6.913,22.951,17.07c-8.917,7.176-14.305,17.848-14.785,29.284
			c-5.262,1.87-11.007,1.879-16.274,0.024c-0.471-11.495-5.867-22.232-14.811-29.469
			C268.168,286.869,277.484,279.995,288.019,280.038z M219.402,315.706c4.331-7.256,12.167-11.69,20.617-11.668
			c4.301-0.016,8.524,1.155,12.203,3.383c11.351,6.775,15.06,21.469,8.285,32.82c-6.775,11.351-21.469,15.06-32.82,8.285
			C216.336,341.751,212.627,327.057,219.402,315.706z M192.019,280.038c10.593-0.041,19.943,6.913,22.951,17.07
			c-8.917,7.176-14.305,17.848-14.785,29.284c-5.283,1.877-11.05,1.877-16.333,0c-0.48-11.435-5.868-22.108-14.785-29.284
			C172.076,286.951,181.426,279.997,192.019,280.038z M144.019,304.038c13.249,0.014,23.986,10.751,24,24c0,13.255-10.745,24-24,24
			s-24-10.745-24-24S130.764,304.038,144.019,304.038z M96.019,280.038c10.593-0.041,19.943,6.913,22.951,17.07
			c-8.968,7.213-14.368,17.96-14.803,29.46c-2.623,0.914-5.382,1.374-8.16,1.359c-0.091-14.665-8.225-28.096-21.179-34.972
			C78.962,285.065,87.111,280.097,96.019,280.038z M56.019,304.038c13.255,0,24,10.745,24,24s-10.745,24-24,24
			c-13.249-0.014-23.986-10.751-24-24C32.019,314.783,42.764,304.038,56.019,304.038z M88.019,410.944v53.094h-72v-53.094
			c-0.746-22.873,17.131-42.049,40-42.906c15.229,0.279,28.957,9.244,35.335,23.076C89.157,397.495,88.03,404.196,88.019,410.944z
			 M81.497,358.614c4.854-3.977,8.706-9.041,11.243-14.781c1.092,0.089,2.181,0.205,3.279,0.205
			c3.658-0.008,7.297-0.517,10.816-1.512c2.475,6.246,6.485,11.766,11.66,16.05c-7.263,3.958-13.577,9.449-18.506,16.092
			C95.071,368.031,88.759,362.551,81.497,358.614z M184.019,410.944v53.094h-80v-53.094c-0.746-22.873,17.131-42.049,40-42.906
			C166.888,368.895,184.766,388.071,184.019,410.944z M169.542,358.576c5.175-4.284,9.185-9.804,11.661-16.05
			c7.07,2.016,14.563,2.016,21.633,0c2.475,6.246,6.485,11.766,11.66,16.05c-9.413,5.156-17.198,12.839-22.477,22.183
			C186.74,371.415,178.955,363.732,169.542,358.576z M280.019,410.944v53.094h-80v-53.094c-0.746-22.873,17.131-42.049,40-42.906
			C262.888,368.895,280.766,388.071,280.019,410.944z M265.542,358.576c5.175-4.284,9.185-9.804,11.661-16.05
			c7.07,2.016,14.563,2.016,21.633,0c2.475,6.246,6.485,11.766,11.66,16.05c-9.413,5.156-17.198,12.839-22.477,22.183
			C282.74,371.415,274.955,363.732,265.542,358.576z M376.019,410.944v53.094h-80v-53.094c-1.55-22.091,15.101-41.257,37.193-42.807
			c22.091-1.551,41.257,15.101,42.807,37.193C376.15,407.199,376.15,409.075,376.019,410.944z M380.049,374.668
			c-4.929-6.642-11.244-12.133-18.507-16.092c5.175-4.284,9.185-9.805,11.661-16.05c3.519,0.995,7.159,1.504,10.816,1.512
			c1.098,0,2.188-0.116,3.279-0.205c2.537,5.74,6.388,10.803,11.243,14.781C391.279,362.551,384.967,368.031,380.049,374.668z
			 M464.019,410.944v53.094h-72v-53.094c-0.011-6.749-1.138-13.449-3.335-19.831c6.378-13.832,20.106-22.797,35.335-23.076
			C446.888,368.895,464.766,388.071,464.019,410.944z"/>
	</g>
</g>
<g>
	<g>
		<path d="M335.048,18.817c-0.28-0.286-0.563-0.569-0.849-0.849c-24.372-23.957-63.448-23.957-87.82,0l-6.359,6.289l-6.359-6.289
			c-24.372-23.957-63.448-23.957-87.82,0c-23.425,22.956-23.805,60.555-0.849,83.979c0.288,0.294,0.579,0.584,0.873,0.872
			l88.555,86.93c3.111,3.052,8.092,3.052,11.203,0l88.578-86.953C357.623,79.84,358.004,42.242,335.048,18.817z M323.667,90.701
			c-0.229,0.235-0.461,0.467-0.696,0.696l-82.952,81.43l-82.93-81.406c-17.142-16.745-17.464-44.217-0.719-61.359
			c0.237-0.242,0.476-0.482,0.719-0.719h0c18.13-17.812,47.19-17.812,65.32,0l11.984,11.859c3.118,3.078,8.132,3.078,11.25,0
			l11.984-11.859c18.13-17.812,47.19-17.812,65.32,0C340.09,46.088,340.412,73.559,323.667,90.701z"/>
	</g>
</g>
<g>
	<g>
		<path d="M118.194,133.526c-0.738-0.805-1.51-1.578-2.316-2.316c-14.304-13.045-35.604-14.81-51.859-4.297
			c-16.258-10.505-37.552-8.741-51.859,4.297c-15.235,13.956-16.272,37.621-2.316,52.856c0.738,0.805,1.51,1.578,2.316,2.316
			l46.391,43.492c1.48,1.393,3.436,2.168,5.469,2.164c2.032,0.004,3.989-0.771,5.469-2.164l46.391-43.492
			C131.114,172.426,132.151,148.761,118.194,133.526z M106.504,173.147c-0.494,0.548-1.016,1.069-1.563,1.563l-40.922,38.359
			L23.097,174.71c-4.477-4.087-7.043-9.86-7.078-15.922c0.037-6.057,2.603-11.824,7.078-15.906c10.044-9.156,25.409-9.156,35.453,0
			c3.073,2.891,7.865,2.891,10.937,0c10.044-9.156,25.409-9.156,35.453,0C113.73,150.808,114.43,164.358,106.504,173.147z"/>
	</g>
</g>
<g>
	<g>
		<path d="M470.194,133.526c-0.738-0.805-1.51-1.578-2.316-2.316c-14.304-13.046-35.604-14.811-51.859-4.297
			c-16.258-10.505-37.552-8.741-51.859,4.297c-15.235,13.956-16.272,37.621-2.316,52.856c0.738,0.805,1.51,1.578,2.316,2.316
			l46.391,43.492c3.075,2.885,7.863,2.885,10.937,0l46.391-43.492C483.114,172.426,484.151,148.761,470.194,133.526z
			 M458.504,173.147c-0.494,0.548-1.016,1.069-1.563,1.563v0l-40.922,38.359l-40.922-38.359c-8.789-7.926-9.489-21.476-1.563-30.265
			c0.494-0.548,1.015-1.069,1.563-1.563c10.044-9.156,25.409-9.156,35.453,0c3.073,2.891,7.865,2.891,10.937,0
			c10.044-9.156,25.409-9.156,35.453,0C465.73,150.808,466.43,164.358,458.504,173.147z"/>
	</g>
</g>
<g>
</g>
<g>
</g>
<g>
</g>
<g>
</g>
<g>
</g>
<g>
</g>
<g>
</g>
<g>
</g>
<g>
</g>
<g>
</g>
<g>
</g>
<g>
</g>
<g>
</g>
<g>
</g>
<g>
</g>
</symbol><symbol id="icon-project" viewBox="0 0 480 480">
<g>
	<g>
		<g>
			<path d="M472,0H112c-4.418,0-8,3.582-8,8v120h16V16h344v440c0.077,4.207-3.169,7.731-7.368,8c-0.688,0-1.376-0.056-2.064-0.072
				c-1.416-0.04-2.832-0.072-4.224-0.216c-0.12,0-0.232,0-0.352-0.048c-26.128-2.856-46.767-23.475-49.648-49.6
				c0-0.112-0.04-0.232-0.056-0.344c-0.194-1.901-0.29-3.81-0.288-5.72v-16c0-4.418-3.582-8-8-8H120V240h-16v144H40
				c-4.418,0-8,3.582-8,8v16c0.044,39.746,32.254,71.956,72,72h352.8c12.982-0.34,23.3-11.014,23.2-24V8C480,3.582,476.418,0,472,0z
				 M104,464c-30.913-0.035-55.965-25.087-56-56v-8h336v8c0.011,2.638,0.163,5.274,0.456,7.896c0.072,0.696,0.208,1.368,0.304,2.056
				c0.264,1.936,0.584,3.864,1.008,5.76c0.144,0.664,0.328,1.32,0.496,1.984c0.488,1.928,1.04,3.824,1.68,5.696
				c0.184,0.536,0.376,1.064,0.576,1.6c0.728,1.984,1.552,3.92,2.456,5.832c0.192,0.392,0.368,0.8,0.56,1.16
				c1.003,2.027,2.104,3.997,3.304,5.912c0.16,0.256,0.304,0.52,0.464,0.8c1.304,2.043,2.712,4.019,4.216,5.92l0.256,0.344
				c1.746,2.193,3.616,4.284,5.6,6.264c1.723,1.707,3.509,3.307,5.36,4.8L104,464z"/>
			<path d="M264,224c2.122,0,4.156-0.844,5.656-2.344l32-32c3.123-3.124,3.123-8.188,0-11.312l-32-32
				c-1.5-1.5-3.534-2.344-5.656-2.344H40c-22.091,0-40,17.909-40,40s17.909,40,40,40H264z M261.936,161.248L284.688,184
				l-22.752,22.752L256.248,184L261.936,161.248z M64,160h181.76l-4,16H80v16h161.76l4,16H64V160z M16,184c0-13.255,10.745-24,24-24
				h8v48h-8C26.745,208,16,197.255,16,184z"/>
			<path d="M184,344h240c4.418,0,8-3.582,8-8V96c-0.001-4.418-3.583-7.999-8.002-7.998c-2.121,0-4.154,0.843-5.654,2.342l-240,240
				c-3.124,3.125-3.123,8.19,0.002,11.314C179.846,343.157,181.879,344,184,344z M416,115.312V136h-16v16h16v16h-16v16h16v16h-16v16
				h16v16h-16v16h16v16h-16v16h16v16h-16v16h16v16h-16v-16h-16v16h-16v-16h-16v16h-16v-16h-16v16h-16v-16h-16v16h-16v-16h-16v16h-16
				v-16h-16v16h-20.688L416,115.312z"/>
			<path d="M299.88,296H376c4.418,0,8-3.582,8-8v-76.12c-0.001-4.418-3.583-7.999-8.002-7.998c-2.121,0-4.154,0.843-5.654,2.342
				l-76.12,76.12c-3.124,3.125-3.123,8.19,0.002,11.314C295.726,295.157,297.759,296,299.88,296z M368,231.2V280h-48.8L368,231.2z"/>
			<rect x="208" y="48" width="160" height="16"/>
			<rect x="184" y="80" width="208" height="16"/>
			<rect x="136" y="248" width="48" height="16"/>
			<rect x="136" y="280" width="32" height="16"/>
		</g>
	</g>
</g>
<g>
</g>
<g>
</g>
<g>
</g>
<g>
</g>
<g>
</g>
<g>
</g>
<g>
</g>
<g>
</g>
<g>
</g>
<g>
</g>
<g>
</g>
<g>
</g>
<g>
</g>
<g>
</g>
<g>
</g>
</symbol><symbol id="icon-service" viewBox="0 0 570 570"><path d="m1.527344 52.246094 37.984375 66.46875c1.28125 2.246094 3.425781 3.871094 5.933593 4.5l35.4375 8.859375 121.542969 121.542969 13.429688-13.425782-123.445313-123.441406c-1.214844-1.21875-2.738281-2.082031-4.40625-2.5l-34.050781-8.542969-32.339844-56.625 27.726563-27.726562 56.648437 32.371093 8.546875 34.050782c.414063 1.671875 1.28125 3.199218 2.496094 4.414062l123.445312 123.445313 13.425782-13.429688-121.542969-121.542969-8.859375-35.417968c-.628906-2.511719-2.253906-4.660156-4.5-5.945313l-66.472656-37.980469c-3.707032-2.109374-8.371094-1.484374-11.394532 1.527344l-37.980468 37.984375c-3.0546878 3.003907-3.71875 7.675781-1.625 11.414063zm0 0"/><path d="m396.3125 187.144531-208.902344 208.90625-13.429687-13.429687 208.90625-208.902344zm0 0"/><path d="m150.847656 403.441406c-1.71875-2.859375-4.804687-4.605468-8.140625-4.605468h-56.972656c-3.332031 0-6.421875 1.746093-8.136719 4.605468l-28.488281 47.476563c-1.808594 3.007812-1.808594 6.769531 0 9.78125l28.488281 47.476562c1.714844 2.855469 4.804688 4.605469 8.136719 4.605469h56.972656c3.335938 0 6.421875-1.75 8.140625-4.605469l28.484375-47.476562c1.808594-3.011719 1.808594-6.773438 0-9.78125zm-13.511718 90.347656h-46.226563l-22.789063-37.980468 22.789063-37.984375h46.226563l22.789062 37.984375zm0 0"/><path d="m456.0625 227.914062c62.714844.210938 113.730469-50.460937 113.941406-113.175781.03125-9.546875-1.140625-19.054687-3.488281-28.308593-1.265625-5.089844-6.417969-8.1875-11.507813-6.921876-1.671874.417969-3.195312 1.28125-4.414062 2.496094l-59.109375 59.070313-46.898437-15.628907-15.640626-46.886718 59.109376-59.121094c3.707031-3.710938 3.703124-9.722656-.007813-13.429688-1.222656-1.222656-2.761719-2.089843-4.445313-2.503906-60.820312-15.402344-122.605468 21.414063-138.007812 82.230469-2.339844 9.226563-3.507812 18.710937-3.476562 28.230469.023437 7.476562.792968 14.929687 2.308593 22.25l-207.957031 207.953125c-7.320312-1.511719-14.773438-2.28125-22.246094-2.308594-62.933594 0-113.949218 51.015625-113.949218 113.949219 0 62.929687 51.015624 113.945312 113.949218 113.945312 62.929688 0 113.945313-51.015625 113.945313-113.945312-.023438-7.476563-.796875-14.929688-2.308594-22.25l49.785156-49.785156 21.773438 21.773437c3.710937 3.707031 9.71875 3.707031 13.429687 0l4.746094-4.75c4.164062-4.136719 10.894531-4.136719 15.058594 0 4.160156 4.148437 4.167968 10.882813.019531 15.042969-.003906.003906-.011719.011718-.019531.019531l-4.746094 4.746094c-3.707031 3.707031-3.707031 9.71875 0 13.425781l113.273438 113.273438c29.792968 30.066406 78.316406 30.285156 108.382812.492187 30.0625-29.792969 30.28125-78.320313.488281-108.382813-.160156-.164062-.324219-.328124-.488281-.492187l-113.273438-113.269531c-3.707031-3.707032-9.71875-3.707032-13.425781 0l-4.746093 4.746094c-4.167969 4.140624-10.894532 4.140624-15.0625 0-4.15625-4.148438-4.167969-10.882813-.019532-15.039063.007813-.007813.015625-.011719.019532-.019531l4.75-4.75c3.707031-3.707032 3.707031-9.71875 0-13.425782l-21.773438-21.773437 49.785156-49.785156c7.320313 1.511719 14.773438 2.285156 22.246094 2.308593zm37.308594 322.851563c-6.898438-.011719-13.738282-1.257813-20.195313-3.683594l74.160157-74.164062c11.191406 29.769531-3.867188 62.972656-33.636719 74.164062-6.496094 2.441407-13.382813 3.691407-20.328125 3.683594zm-107.574219-246.792969c-10.515625 12.542969-8.867187 31.238282 3.675781 41.75 11.023438 9.238282 27.089844 9.230469 38.101563-.027344l106.5625 106.65625c1.15625 1.160157 2.238281 2.382813 3.285156 3.625l-81.1875 81.1875c-1.246094-1.042968-2.46875-2.125-3.628906-3.285156l-106.644531-106.652344c10.515624-12.542968 8.867187-31.238281-3.675782-41.75-11.023437-9.242187-27.09375-9.230468-38.105468.023438l-15.191407-15.191406 81.613281-81.492188zm38.34375-95.503906-215.410156 215.367188c-2.363281 2.359374-3.3125 5.785156-2.507813 9.023437 13.027344 51.160156-17.886718 103.195313-69.050781 116.21875-51.160156 13.027344-103.195313-17.886719-116.222656-69.050781-13.023438-51.160156 17.890625-103.195313 69.054687-116.222656 15.476563-3.9375 31.691406-3.9375 47.167969 0 3.238281.792968 6.65625-.15625 9.023437-2.503907l215.359376-215.371093c2.359374-2.359376 3.308593-5.785157 2.496093-9.019532-12.9375-50.5625 17.5625-102.039062 68.125-114.980468 9.554688-2.441407 19.4375-3.378907 29.28125-2.765626l-50.089843 50.109376c-2.542969 2.539062-3.433594 6.300781-2.296876 9.710937l18.988282 56.976563c.949218 2.832031 3.175781 5.058593 6.011718 6l56.976563 18.992187c3.40625 1.136719 7.167969.25 9.710937-2.289063l50.089844-50.089843c.113282 1.8125.171875 3.605469.171875 5.390625.265625 52.175781-41.8125 94.6875-93.988281 94.957031-8.066406.039063-16.105469-.953125-23.917969-2.953125-3.238281-.808594-6.664062.136719-9.023437 2.496094h.050781zm0 0"/><path d="m491.273438 477.578125-13.429688 13.429687-94.953125-94.953124 13.425781-13.429688zm0 0"/></symbol><symbol id="icon-shield" viewBox="0 0 511 511"><path d="m403.164062 85.199219c-15.847656-2.003907-31.335937-5.519531-46.027343-10.445313-3.929688-1.316406-8.179688.800782-9.496094 4.726563-1.316406 3.929687.800781 8.179687 4.726563 9.496093 15.628906 5.242188 32.085937 8.976563 48.917968 11.105469 25.242188 3.195313 43.257813 26.492188 40.15625 51.929688-4.066406 33.359375-11.511718 83.152343-23.886718 130.917969-13.480469 52.027343-29.300782 88.226562-47.023438 107.59375-36.394531 39.769531-82.023438 75.019531-113.890625 97.585937-16.746094 11.859375-39.246094 11.859375-55.988281 0-31.867188-22.566406-77.496094-57.816406-113.890625-97.585937-17.722657-19.367188-33.546875-55.566407-47.023438-107.59375-12.375-47.765626-19.820312-97.558594-23.890625-130.917969-3.097656-25.4375 14.914063-48.734375 40.160156-51.929688 72.769532-9.203125 121-45.765625 148.648438-74.816406 6.300781-6.617187 14.820312-10.265625 23.988281-10.265625s17.6875 3.648438 23.992188 10.265625c19.917969 20.929687 42.941406 37.996094 68.429687 50.726563 3.703125 1.851562 8.210938.347656 10.0625-3.359376 1.847656-3.707031.34375-8.210937-3.359375-10.058593-23.929687-11.953125-45.550781-27.984375-64.269531-47.648438-9.160156-9.625-21.539062-14.925781-34.855469-14.925781-13.316406 0-25.695312 5.300781-34.855469 14.925781-25.96875 27.285157-71.277343 61.625-139.664062 70.273438-33.414062 4.226562-57.265625 35.015625-53.167969 68.628906 6.984375 57.289063 28.25 196.023437 74.738281 246.824219 37.289063 40.746094 83.820313 76.707031 116.285157 99.699218 10.964843 7.765626 23.8125 11.648438 36.664062 11.648438 12.847657-.003906 25.699219-3.882812 36.664063-11.648438 32.464844-22.992187 78.996094-58.953124 116.285156-99.699218 46.492188-50.800782 67.753906-189.535156 74.738281-246.824219 4.097657-33.613281-19.753906-64.402344-53.167969-68.628906zm0 0"/><path d="m211.722656 70.453125c-37.941406 32.832031-82.234375 54.320313-131.644531 63.867187-15.054687 2.910157-25.21875 17.144532-23.140625 32.410157 3.496094 25.667969 10.644531 73.671875 19.21875 106.765625 15.628906 60.335937 30.742188 83.308594 38.359375 91.628906 25.039063 27.359375 71.5 63.917969 96.964844 83.273438 5.054687 3.839843 11.109375 5.757812 17.164062 5.757812 6.054688 0 12.109375-1.917969 17.164063-5.757812 25.464844-19.355469 71.925781-55.914063 96.964844-83.273438 7.617187-8.320312 22.730468-31.292969 38.359374-91.628906 8.578126-33.101563 15.722657-81.101563 19.222657-106.765625 2.078125-15.265625-8.089844-29.5-23.144531-32.410157-49.410157-9.546874-93.703126-31.035156-131.644532-63.867187-9.648437-8.347656-24.195312-8.347656-33.84375 0zm173.769532 94.25c-3.453126 25.339844-10.496094 72.675781-18.878907 105.03125-15.800781 60.992187-30.710937 80.679687-34.902343 85.265625-25.152344 27.480469-74.800782 66.117188-94.980469 81.453125-4.761719 3.621094-11.410157 3.621094-16.171875 0-20.179688-15.335937-69.828125-53.976563-94.976563-81.453125-4.195312-4.585938-19.105469-24.273438-34.90625-85.265625-8.378906-32.347656-15.421875-79.6875-18.875-105.03125-1.007812-7.378906 3.878907-14.253906 11.121094-15.65625 52.027344-10.050781 98.664063-32.675781 138.617187-67.25 2.023438-1.753906 4.566407-2.632813 7.105469-2.632813 2.539063 0 5.082031.878907 7.105469 2.632813 39.953125 34.574219 86.589844 57.199219 138.617188 67.25 7.242187 1.402344 12.128906 8.277344 11.125 15.65625zm0 0"/><path d="m187.050781 234.066406c-5.640625-4.59375-24.679687-14.078125-38.3125 3.933594-13.628906 18.007812-1.707031 33.71875 3.933594 38.3125l21.75 17.695312c3.210937 2.613282 7.9375 2.132813 10.550781-1.082031 2.613282-3.214843 2.128906-7.9375-1.082031-10.554687l-21.75-17.695313c-2.53125-2.0625-8.0625-8.777343-1.765625-17.210937 6.296875-8.429688 14.675781-3.828125 17.207031-1.765625l45.035157 36.644531c2.972656 2.417969 7.289062 2.207031 10.011718-.492188l65.902344-65.285156c4.792969-4.75 12.550781-4.710937 17.300781.082032 4.746094 4.789062 4.707031 12.550781-.082031 17.296874l-78.496094 77.765626c-6.214844 5.992187-13.058594 3.496093-16.328125.796874l-12.460937-10.136718c-3.214844-2.613282-7.9375-2.128906-10.554688 1.082031-2.613281 3.210937-2.128906 7.9375 1.085938 10.550781l12.460937 10.140625c4.839844 3.9375 10.941407 6.109375 17.183594 6.109375 7.230469 0 14.039063-2.800781 19.171875-7.886718l78.492188-77.761719c10.667968-10.570313 10.75-27.847657.179687-38.515625-10.566406-10.664063-27.84375-10.746094-38.511719-.179688l-61.117187 60.546875zm0 0"/></symbol><symbol id="icon-start" viewBox="0 0 483 483">
<g>
	<g>
		<path d="M475.266,126.603c-0.001,0-0.001,0-0.002,0l-0.016-0.016l-31.12-4.44c-4.374-0.623-7.415-4.674-6.792-9.048
			c0.299-2.102,1.422-3.998,3.12-5.272l25.152-18.864c3.535-2.651,4.251-7.665,1.6-11.2l-28.8-38.4
			c-2.651-3.535-7.665-4.251-11.2-1.6l-25.144,18.864c-3.52,2.671-8.538,1.983-11.209-1.537c-1.297-1.709-1.853-3.868-1.543-5.991
			l4.448-31.12c0.627-4.374-2.41-8.427-6.783-9.055c-0.003,0-0.006-0.001-0.009-0.001L339.48,2.139
			c-4.373-0.628-8.428,2.408-9.056,6.782c0,0.001,0,0.001,0,0.002l-4.448,31.12c-0.623,4.374-4.674,7.415-9.048,6.792
			c-2.102-0.299-3.998-1.422-5.272-3.12L292.8,18.563c-2.651-3.535-7.665-4.251-11.2-1.6l-24.04,18.04
			c-10.876-1.156-21.844-1.156-32.72,0C153.614,43.144,97.759,99.946,90.816,171.299c-0.216,2.264-0.296,4.512-0.408,6.76h-2.4
			c-3.796,0.007-7.065,2.681-7.824,6.4l-5.528,26.288l-22.144-15.272c-3.178-2.193-7.47-1.802-10.2,0.928l-24,24
			c-2.726,2.729-3.116,7.015-0.928,10.192l15.2,22.104l-26.296,5.528c-3.678,0.806-6.296,4.067-6.288,7.832v32
			c-0.002,3.784,2.649,7.052,6.352,7.832l26.296,5.528l-15.2,22.104c-2.188,3.177-1.798,7.463,0.928,10.192l24,24
			c2.73,2.73,7.022,3.121,10.2,0.928l22.104-15.24l5.528,26.296c0.759,3.719,4.028,6.393,7.824,6.4h32
			c3.784,0.002,7.052-2.649,7.832-6.352l5.528-26.296l22.104,15.2c3.177,2.188,7.463,1.798,10.192-0.928l12.424-12.464v22.8
			c0.036,11.381,6.133,21.88,16,27.552v44.448c0,17.673,14.327,32,32,32h32c17.673,0,32-14.327,32-32v-44.448
			c9.867-5.672,15.964-16.171,16-27.552v-31.664c0.217-13.323,7.187-25.623,18.504-32.656c6.639-4.307,12.935-9.122,18.832-14.4
			l-10.672-11.92c-5.275,4.728-10.911,9.037-16.856,12.888c-15.885,9.97-25.609,27.334-25.808,46.088v31.664c0,8.837-7.163,16-16,16
			h-64c-8.837,0-16-7.163-16-16v-32.328c-0.185-18.399-9.756-35.428-25.376-45.152c-63.407-39.842-82.511-123.541-42.669-186.948
			c24.72-39.341,67.862-63.286,114.325-63.452c-0.119,0.285-0.224,0.576-0.312,0.872c-0.297,2.1,0.253,4.233,1.528,5.928
			l18.856,25.144c1.988,2.573,2.179,6.107,0.48,8.88c-1.636,2.79-4.799,4.312-8,3.848l-31.12-4.448
			c-4.374-0.627-8.427,2.41-9.055,6.783c0,0.003-0.001,0.006-0.001,0.009l-6.792,47.512c-0.627,4.373,2.41,8.427,6.783,9.055
			c0.003,0,0.006,0.001,0.009,0.001l31.12,4.448c4.374,0.623,7.415,4.674,6.792,9.048c-0.299,2.102-1.422,3.998-3.12,5.272
			l-25.144,18.856c-3.535,2.651-4.251,7.665-1.6,11.2l28.8,38.4c2.651,3.535,7.665,4.251,11.2,1.6l25.152-18.856
			c3.538-2.646,8.552-1.923,11.198,1.616c1.266,1.693,1.811,3.819,1.514,5.912l-4.44,31.12c-0.628,4.373,2.408,8.428,6.782,9.056
			c0.001,0,0.001,0,0.002,0l47.52,6.792c0.374,0.048,0.751,0.072,1.128,0.072c3.983,0.005,7.362-2.921,7.928-6.864l4.44-31.12
			c0.623-4.374,4.674-7.415,9.048-6.792c2.102,0.299,3.998,1.422,5.272,3.12l18.864,25.144c2.651,3.535,7.665,4.251,11.2,1.6
			l38.4-28.8c3.535-2.651,4.251-7.665,1.6-11.2l-18.856-25.144c-1.979-2.577-2.17-6.105-0.48-8.88c1.601-2.827,4.793-4.359,8-3.84
			l31.12,4.44c4.373,0.628,8.428-2.409,9.056-6.782c0-0.001,0-0.001,0-0.002l6.784-47.52
			C482.676,131.285,479.64,127.231,475.266,126.603z M210.112,410.059h64v16h-64V410.059z M210.112,442.059h64v8
			c0,8.837-7.163,16-16,16h-32c-8.837,0-16-7.163-16-16V442.059z M146.424,304.099c4.368,3.572,8.932,6.898,13.672,9.96
			c7.559,4.777,13.249,12.004,16.12,20.472l-17.16,17.128l-16.616-11.456c-7.276-5.014-17.239-3.18-22.254,4.096
			c-1.202,1.745-2.046,3.711-2.482,5.784l-4.192,19.976H94.496l-4.192-19.944c-1.82-8.647-10.305-14.182-18.952-12.362
			c-2.073,0.436-4.039,1.28-5.784,2.482l-16.624,11.424l-14.576-14.544l11.448-16.608c5.019-7.273,3.191-17.237-4.082-22.256
			c-1.746-1.205-3.714-2.051-5.79-2.488L16,291.563v-19.008l19.944-4.2c8.644-1.833,14.166-10.326,12.333-18.971
			c-0.435-2.051-1.268-3.996-2.453-5.725l-11.456-16.656l14.576-14.544l16.632,11.456c7.279,5.009,17.242,3.169,22.251-4.11
			c1.2-1.743,2.042-3.707,2.477-5.778l1.4-6.656c1.282,9.218,3.405,18.298,6.344,27.128c-26.323,3.138-45.118,27.022-41.98,53.345
			c3.138,26.323,27.022,45.118,53.345,41.98C125.259,327.934,139.13,318.293,146.424,304.099z M134,292.827
			c-5.974,16.605-24.277,25.223-40.882,19.25c-16.605-5.974-25.223-24.277-19.25-40.882c4.57-12.703,16.631-21.164,30.131-21.136
			c0.104,0,0.2,0,0.304,0C111.66,265.922,121.707,280.391,134,292.827z M460.512,172.971l-23.2-3.312
			c-13.122-1.874-25.278,7.245-27.152,20.366c-0.9,6.301,0.74,12.702,4.56,17.794l14.056,18.744l-25.6,19.2l-14.064-18.736
			c-7.952-10.605-22.995-12.756-33.599-4.804c-5.092,3.818-8.459,9.503-9.361,15.804l-3.24,23.232l-31.672-4.528l3.312-23.2
			c1.879-13.121-7.235-25.281-20.356-27.159c-6.305-0.903-12.709,0.737-17.804,4.559l-18.744,14.056l-19.2-25.6l18.736-14.064
			c10.605-7.952,12.756-22.995,4.804-33.599c-3.818-5.092-9.503-8.459-15.804-9.361l-23.2-3.312l4.528-31.672l23.2,3.312
			c13.121,1.879,25.281-7.235,27.159-20.356c0.903-6.305-0.737-12.709-4.559-17.804l-14.104-18.76l25.6-19.2l14.064,18.744
			c7.952,10.605,22.995,12.756,33.599,4.804c5.092-3.818,8.459-9.503,9.361-15.804l3.312-23.2l31.672,4.52l-3.312,23.2
			c-1.874,13.122,7.244,25.278,20.366,27.152c6.301,0.9,12.702-0.74,17.794-4.56l18.744-14.056l19.2,25.6l-18.744,14.064
			c-10.605,7.952-12.756,22.995-4.804,33.599c3.818,5.092,9.503,8.459,15.804,9.361l23.2,3.312L460.512,172.971z"/>
	</g>
</g>
<g>
	<g>
		<path d="M344,76.171c-35.346,0-64,28.654-64,64c0,35.346,28.654,64,64,64c35.346,0,64-28.654,64-64
			C407.96,104.841,379.33,76.21,344,76.171z M344,188.171c-26.51,0-48-21.49-48-48s21.49-48,48-48c26.51,0,48,21.49,48,48
			C391.969,166.668,370.497,188.14,344,188.171z"/>
	</g>
</g>
<g>
	<g>
		<rect x="234.112" y="354.059" width="16" height="24"/>
	</g>
</g>
<g>
	<g>
		<path d="M207.12,275.491c-49.385-19.292-73.78-74.966-54.487-124.351c7.476-19.136,20.893-35.369,38.279-46.313l-8.552-13.536
			c-52.336,32.971-68.035,102.126-35.064,154.462c12.769,20.269,31.701,35.91,54.016,44.626c19.752,7.568,32.795,26.528,32.8,47.68
			h16C250.137,310.307,233.035,285.418,207.12,275.491z"/>
	</g>
</g>
<g>
	<g>
		<rect x="394.112" y="298.059" width="56" height="16"/>
	</g>
</g>
<g>
	<g>
		<rect x="402.113" y="334.822" transform="matrix(0.6401 -0.7683 0.7683 0.6401 -133.6437 446.8239)" width="16" height="62.48"/>
	</g>
</g>
<g>
	<g>
		<rect x="346.112" y="362.059" width="16" height="56"/>
	</g>
</g>
<g>
	<g>
		<rect x="9.128" y="130.058" transform="matrix(0.9701 -0.2425 0.2425 0.9701 -32.2251 14.3351)" width="65.968" height="15.992"/>
	</g>
</g>
<g>
	<g>
		<rect x="46.111" y="35.657" transform="matrix(0.5812 -0.8137 0.8137 0.5812 -34.3557 73.3688)" width="15.992" height="68.816"/>
	</g>
</g>
<g>
	<g>
		<rect x="97.938" y="1.024" transform="matrix(0.9688 -0.2477 0.2477 0.9688 -5.133 27.2971)" width="16" height="66.056"/>
	</g>
</g>
<g>
</g>
<g>
</g>
<g>
</g>
<g>
</g>
<g>
</g>
<g>
</g>
<g>
</g>
<g>
</g>
<g>
</g>
<g>
</g>
<g>
</g>
<g>
</g>
<g>
</g>
<g>
</g>
<g>
</g>
</symbol></svg>